%TF.GenerationSoftware,KiCad,Pcbnew,10.0.2*%
%TF.CreationDate,2026-05-22T11:35:34+02:00*%
%TF.ProjectId,Open_Battery_Charger,4f70656e-5f42-4617-9474-6572795f4368,rev?*%
%TF.SameCoordinates,Original*%
%TF.FileFunction,Copper,L1,Top*%
%TF.FilePolarity,Positive*%
%FSLAX46Y46*%
G04 Gerber Fmt 4.6, Leading zero omitted, Abs format (unit mm)*
G04 Created by KiCad (PCBNEW 10.0.2) date 2026-05-22 11:35:35*
%MOMM*%
%LPD*%
G01*
G04 APERTURE LIST*
G04 Aperture macros list*
%AMRoundRect*
0 Rectangle with rounded corners*
0 $1 Rounding radius*
0 $2 $3 $4 $5 $6 $7 $8 $9 X,Y pos of 4 corners*
0 Add a 4 corners polygon primitive as box body*
4,1,4,$2,$3,$4,$5,$6,$7,$8,$9,$2,$3,0*
0 Add four circle primitives for the rounded corners*
1,1,$1+$1,$2,$3*
1,1,$1+$1,$4,$5*
1,1,$1+$1,$6,$7*
1,1,$1+$1,$8,$9*
0 Add four rect primitives between the rounded corners*
20,1,$1+$1,$2,$3,$4,$5,0*
20,1,$1+$1,$4,$5,$6,$7,0*
20,1,$1+$1,$6,$7,$8,$9,0*
20,1,$1+$1,$8,$9,$2,$3,0*%
G04 Aperture macros list end*
%TA.AperFunction,SMDPad,CuDef*%
%ADD10RoundRect,0.250000X-1.450000X-0.650000X1.450000X-0.650000X1.450000X0.650000X-1.450000X0.650000X0*%
%TD*%
%TA.AperFunction,SMDPad,CuDef*%
%ADD11RoundRect,0.250000X-0.450000X0.325000X-0.450000X-0.325000X0.450000X-0.325000X0.450000X0.325000X0*%
%TD*%
%TA.AperFunction,SMDPad,CuDef*%
%ADD12RoundRect,0.250000X-0.450000X0.262500X-0.450000X-0.262500X0.450000X-0.262500X0.450000X0.262500X0*%
%TD*%
%TA.AperFunction,SMDPad,CuDef*%
%ADD13RoundRect,0.250000X-0.337500X-0.475000X0.337500X-0.475000X0.337500X0.475000X-0.337500X0.475000X0*%
%TD*%
%TA.AperFunction,SMDPad,CuDef*%
%ADD14RoundRect,0.250001X-0.507499X-0.944999X0.507499X-0.944999X0.507499X0.944999X-0.507499X0.944999X0*%
%TD*%
%TA.AperFunction,ComponentPad*%
%ADD15R,1.700000X1.700000*%
%TD*%
%TA.AperFunction,ComponentPad*%
%ADD16C,1.700000*%
%TD*%
%TA.AperFunction,SMDPad,CuDef*%
%ADD17RoundRect,0.062500X-0.062500X0.362500X-0.062500X-0.362500X0.062500X-0.362500X0.062500X0.362500X0*%
%TD*%
%TA.AperFunction,SMDPad,CuDef*%
%ADD18RoundRect,0.062500X-0.362500X0.062500X-0.362500X-0.062500X0.362500X-0.062500X0.362500X0.062500X0*%
%TD*%
%TA.AperFunction,HeatsinkPad*%
%ADD19C,0.500000*%
%TD*%
%TA.AperFunction,HeatsinkPad*%
%ADD20R,3.650000X2.650000*%
%TD*%
%TA.AperFunction,SMDPad,CuDef*%
%ADD21RoundRect,0.250000X-1.000000X-0.650000X1.000000X-0.650000X1.000000X0.650000X-1.000000X0.650000X0*%
%TD*%
%TA.AperFunction,SMDPad,CuDef*%
%ADD22RoundRect,0.250000X0.337500X0.475000X-0.337500X0.475000X-0.337500X-0.475000X0.337500X-0.475000X0*%
%TD*%
%TA.AperFunction,SMDPad,CuDef*%
%ADD23RoundRect,0.250000X1.450000X-0.537500X1.450000X0.537500X-1.450000X0.537500X-1.450000X-0.537500X0*%
%TD*%
%TA.AperFunction,SMDPad,CuDef*%
%ADD24RoundRect,0.250000X-0.650000X1.000000X-0.650000X-1.000000X0.650000X-1.000000X0.650000X1.000000X0*%
%TD*%
%TA.AperFunction,SMDPad,CuDef*%
%ADD25RoundRect,0.175000X0.325000X0.175000X-0.325000X0.175000X-0.325000X-0.175000X0.325000X-0.175000X0*%
%TD*%
%TA.AperFunction,SMDPad,CuDef*%
%ADD26RoundRect,0.250000X-0.262500X-0.450000X0.262500X-0.450000X0.262500X0.450000X-0.262500X0.450000X0*%
%TD*%
%TA.AperFunction,SMDPad,CuDef*%
%ADD27RoundRect,0.225000X0.525000X2.075000X-0.525000X2.075000X-0.525000X-2.075000X0.525000X-2.075000X0*%
%TD*%
%TA.AperFunction,SMDPad,CuDef*%
%ADD28RoundRect,0.250000X-0.475000X0.337500X-0.475000X-0.337500X0.475000X-0.337500X0.475000X0.337500X0*%
%TD*%
%TA.AperFunction,SMDPad,CuDef*%
%ADD29RoundRect,0.225000X0.375000X-0.225000X0.375000X0.225000X-0.375000X0.225000X-0.375000X-0.225000X0*%
%TD*%
%TA.AperFunction,ComponentPad*%
%ADD30C,3.500000*%
%TD*%
%TA.AperFunction,SMDPad,CuDef*%
%ADD31RoundRect,0.100000X-0.100000X0.625000X-0.100000X-0.625000X0.100000X-0.625000X0.100000X0.625000X0*%
%TD*%
%TA.AperFunction,HeatsinkPad*%
%ADD32R,2.845000X1.651000*%
%TD*%
%TA.AperFunction,SMDPad,CuDef*%
%ADD33RoundRect,0.175000X-0.175000X0.325000X-0.175000X-0.325000X0.175000X-0.325000X0.175000X0.325000X0*%
%TD*%
%TA.AperFunction,SMDPad,CuDef*%
%ADD34RoundRect,0.150000X0.512500X0.150000X-0.512500X0.150000X-0.512500X-0.150000X0.512500X-0.150000X0*%
%TD*%
%TA.AperFunction,SMDPad,CuDef*%
%ADD35RoundRect,0.250000X1.000000X0.650000X-1.000000X0.650000X-1.000000X-0.650000X1.000000X-0.650000X0*%
%TD*%
%TA.AperFunction,SMDPad,CuDef*%
%ADD36RoundRect,0.225000X-0.225000X-0.375000X0.225000X-0.375000X0.225000X0.375000X-0.225000X0.375000X0*%
%TD*%
%TA.AperFunction,SMDPad,CuDef*%
%ADD37RoundRect,0.250000X0.475000X-0.337500X0.475000X0.337500X-0.475000X0.337500X-0.475000X-0.337500X0*%
%TD*%
%TA.AperFunction,ViaPad*%
%ADD38C,0.600000*%
%TD*%
%TA.AperFunction,Conductor*%
%ADD39C,0.200000*%
%TD*%
%TA.AperFunction,Conductor*%
%ADD40C,0.787400*%
%TD*%
%TA.AperFunction,Conductor*%
%ADD41C,0.500000*%
%TD*%
%TA.AperFunction,Conductor*%
%ADD42C,0.400000*%
%TD*%
%TA.AperFunction,Conductor*%
%ADD43C,0.250000*%
%TD*%
G04 APERTURE END LIST*
D10*
%TO.P,TP1,1*%
%TO.N,/PS_Voltage*%
X132000000Y-105000000D03*
%TD*%
D11*
%TO.P,D8,1,K_1*%
%TO.N,Net-(D8-K)*%
X123000000Y-120975000D03*
%TO.P,D8,2,A_2*%
%TO.N,Net-(D5-K)*%
X123000000Y-123025000D03*
%TD*%
D12*
%TO.P,R4,1*%
%TO.N,/DC_IN*%
X135000000Y-117175000D03*
%TO.P,R4,2*%
%TO.N,Net-(U1-~{FLT})*%
X135000000Y-119000000D03*
%TD*%
D13*
%TO.P,C1,1*%
%TO.N,GND*%
X138962500Y-112000000D03*
%TO.P,C1,2*%
%TO.N,VCC*%
X141037500Y-112000000D03*
%TD*%
D14*
%TO.P,C7,1*%
%TO.N,/Battery_Voltage*%
X120142000Y-144780000D03*
%TO.P,C7,2*%
%TO.N,GND*%
X123397000Y-144780000D03*
%TD*%
D15*
%TO.P,J1,1,Pin_1_1*%
%TO.N,/Battery_Voltage*%
X147000000Y-140080000D03*
D16*
%TO.P,J1,2,Pin_2_2*%
%TO.N,/SCL*%
X147000000Y-137540000D03*
%TO.P,J1,3,Pin_3_3*%
%TO.N,/SDA*%
X147000000Y-135000000D03*
%TO.P,J1,4,Pin_4_4*%
%TO.N,/Thermistor*%
X147000000Y-132460000D03*
%TO.P,J1,5,Pin_5_5*%
%TO.N,GND*%
X147000000Y-129920000D03*
%TD*%
D17*
%TO.P,U1,1,NC_1*%
%TO.N,unconnected-(U1-NC-Pad1)*%
X130500000Y-117137500D03*
%TO.P,U1,2,NC_2*%
%TO.N,unconnected-(U1-NC-Pad2)*%
X130000000Y-117137500D03*
%TO.P,U1,3,NC_3*%
%TO.N,unconnected-(U1-NC-Pad3)*%
X129500000Y-117137500D03*
%TO.P,U1,4,NC_4*%
%TO.N,unconnected-(U1-NC-Pad4)*%
X129000000Y-117137500D03*
%TO.P,U1,5,NC_5*%
%TO.N,unconnected-(U1-NC-Pad5)*%
X128500000Y-117137500D03*
%TO.P,U1,6,NC_6*%
%TO.N,unconnected-(U1-NC-Pad6)*%
X128000000Y-117137500D03*
%TO.P,U1,7,NC_7*%
%TO.N,unconnected-(U1-NC-Pad7)*%
X127500000Y-117137500D03*
D18*
%TO.P,U1,8,IN_8*%
%TO.N,VCC*%
X126550000Y-118087500D03*
%TO.P,U1,9,IN_9*%
X126550000Y-118587500D03*
%TO.P,U1,10,UVLO_10*%
%TO.N,Net-(U1-UVLO)*%
X126550000Y-119087500D03*
%TO.P,U1,11,NC_11*%
%TO.N,unconnected-(U1-NC-Pad11)*%
X126550000Y-119587500D03*
%TO.P,U1,12,OVP_12*%
%TO.N,Net-(U1-OVP)*%
X126550000Y-120087500D03*
D17*
%TO.P,U1,13,MODE_13*%
%TO.N,Net-(U1-MODE)*%
X127500000Y-121037500D03*
%TO.P,U1,14,~{SHDN}_14*%
%TO.N,unconnected-(U1-~{SHDN}-Pad14)*%
X128000000Y-121037500D03*
%TO.P,U1,15,RTN_15*%
%TO.N,Net-(U1-MODE)*%
X128500000Y-121037500D03*
%TO.P,U1,16,NC_16*%
%TO.N,unconnected-(U1-NC-Pad16)*%
X129000000Y-121037500D03*
%TO.P,U1,17,GND_17*%
%TO.N,GND*%
X129500000Y-121037500D03*
%TO.P,U1,18,IMON_18*%
%TO.N,Net-(U1-IMON)*%
X130000000Y-121037500D03*
%TO.P,U1,19,ILIM_19*%
%TO.N,Net-(U1-ILIM)*%
X130500000Y-121037500D03*
D18*
%TO.P,U1,20,dVdT_20*%
%TO.N,Net-(U1-dVdT)*%
X131450000Y-120087500D03*
%TO.P,U1,21,NC_21*%
%TO.N,unconnected-(U1-NC-Pad21)*%
X131450000Y-119587500D03*
%TO.P,U1,22,~{FLT}_22*%
%TO.N,Net-(U1-~{FLT})*%
X131450000Y-119087500D03*
%TO.P,U1,23,OUT_23*%
%TO.N,/DC_IN*%
X131450000Y-118587500D03*
%TO.P,U1,24,OUT_24*%
X131450000Y-118087500D03*
D19*
%TO.P,U1,25,RTN_25*%
%TO.N,Net-(U1-MODE)*%
X130575000Y-118012500D03*
X129525000Y-118012500D03*
X128475000Y-118012500D03*
X127425000Y-118012500D03*
X130575000Y-119087500D03*
X129525000Y-119087500D03*
D20*
X129000000Y-119087500D03*
D19*
X128475000Y-119087500D03*
X127425000Y-119087500D03*
X130575000Y-120162500D03*
X129525000Y-120162500D03*
X128475000Y-120162500D03*
X127425000Y-120162500D03*
%TD*%
D21*
%TO.P,D5,1,K_1*%
%TO.N,Net-(D5-K)*%
X138970000Y-126238000D03*
%TO.P,D5,2,A_2*%
%TO.N,/DC_IN*%
X142970000Y-126238000D03*
%TD*%
D12*
%TO.P,R8,1*%
%TO.N,Net-(D8-K)*%
X114000000Y-121087500D03*
%TO.P,R8,2*%
%TO.N,Net-(IC1-~{FAULT})*%
X114000000Y-122912500D03*
%TD*%
%TO.P,R5,1*%
%TO.N,Net-(U1-IMON)*%
X129000000Y-124175000D03*
%TO.P,R5,2*%
%TO.N,Net-(U1-MODE)*%
X129000000Y-126000000D03*
%TD*%
D22*
%TO.P,C6,1*%
%TO.N,/Battery_Voltage*%
X141037500Y-142000000D03*
%TO.P,C6,2*%
%TO.N,GND*%
X138962500Y-142000000D03*
%TD*%
D12*
%TO.P,R6,1*%
%TO.N,Net-(U1-ILIM)*%
X132000000Y-124175000D03*
%TO.P,R6,2*%
%TO.N,Net-(U1-MODE)*%
X132000000Y-126000000D03*
%TD*%
D23*
%TO.P,L1,1,1_1*%
%TO.N,Net-(D9-K)*%
X117515000Y-139297500D03*
%TO.P,L1,2,2_2*%
%TO.N,Net-(IC1-SENSE)*%
X117515000Y-135022500D03*
%TD*%
D24*
%TO.P,D4,1,K_1*%
%TO.N,/DC_IN*%
X142000000Y-117087500D03*
%TO.P,D4,2,A_2*%
%TO.N,GND*%
X142000000Y-121087500D03*
%TD*%
D13*
%TO.P,C10,1*%
%TO.N,/System_Voltage*%
X107000000Y-132000000D03*
%TO.P,C10,2*%
%TO.N,GND*%
X109075000Y-132000000D03*
%TD*%
D25*
%TO.P,Q1,1,D_1_1*%
%TO.N,VCC*%
X124460000Y-111120000D03*
%TO.P,Q1,2,D_2_2*%
X124460000Y-110170000D03*
%TO.P,Q1,3,G_3*%
%TO.N,Net-(Q1-G)*%
X124460000Y-109220000D03*
%TO.P,Q1,4,S_4*%
%TO.N,/PS_Voltage*%
X121860000Y-109220000D03*
%TO.P,Q1,5,D_3_5*%
%TO.N,VCC*%
X121860000Y-110170000D03*
%TO.P,Q1,6,D_4_6*%
X121860000Y-111120000D03*
%TD*%
D11*
%TO.P,D7,1,K_1*%
%TO.N,Net-(D7-K)*%
X120000000Y-120975000D03*
%TO.P,D7,2,A_2*%
%TO.N,Net-(D5-K)*%
X120000000Y-123025000D03*
%TD*%
D26*
%TO.P,R9,1*%
%TO.N,/Battery_Voltage*%
X111713000Y-136652000D03*
%TO.P,R9,2*%
%TO.N,Net-(IC1-SENSE)*%
X113538000Y-136652000D03*
%TD*%
D27*
%TO.P,F1,1,1_1*%
%TO.N,/PS_Voltage*%
X110857000Y-114565400D03*
%TO.P,F1,2,2_2*%
%TO.N,Net-(D12-A)*%
X105954800Y-114565400D03*
%TD*%
D28*
%TO.P,C4,1*%
%TO.N,Net-(D5-K)*%
X126000000Y-123962500D03*
%TO.P,C4,2*%
%TO.N,GND*%
X126000000Y-126037500D03*
%TD*%
D29*
%TO.P,D6,1,K_1*%
%TO.N,Net-(D6-K)*%
X108458000Y-138787500D03*
%TO.P,D6,2,A_2*%
%TO.N,/Battery_Voltage*%
X108458000Y-135487500D03*
%TD*%
D30*
%TO.P,H1,1*%
%TO.N,GND*%
X147000000Y-105000000D03*
%TD*%
D28*
%TO.P,C3,1*%
%TO.N,/DC_IN*%
X138000000Y-117050000D03*
%TO.P,C3,2*%
%TO.N,GND*%
X138000000Y-119125000D03*
%TD*%
D31*
%TO.P,IC1,1,VIN_1*%
%TO.N,Net-(D5-K)*%
X120625000Y-126850000D03*
%TO.P,IC1,2,CLP_2*%
X119975000Y-126850000D03*
%TO.P,IC1,3,~{SHDN}_3*%
X119325000Y-126850000D03*
%TO.P,IC1,4,~{CHRG}_4*%
%TO.N,Net-(IC1-~{CHRG})*%
X118675000Y-126850000D03*
%TO.P,IC1,5,~{FAULT}_5*%
%TO.N,Net-(IC1-~{FAULT})*%
X118025000Y-126850000D03*
%TO.P,IC1,6,TIMER_6*%
%TO.N,GND*%
X117375000Y-126850000D03*
%TO.P,IC1,7,RNG/SS_7*%
%TO.N,unconnected-(IC1-RNG{slash}SS-Pad7)*%
X117375000Y-131150000D03*
%TO.P,IC1,8,NTC_8*%
%TO.N,/Thermistor*%
X118025000Y-131150000D03*
%TO.P,IC1,9,BAT_9*%
%TO.N,/Battery_Voltage*%
X118675000Y-131150000D03*
%TO.P,IC1,10,SENSE_10*%
%TO.N,Net-(IC1-SENSE)*%
X119325000Y-131150000D03*
%TO.P,IC1,11,BOOST_11*%
%TO.N,Net-(D6-K)*%
X119975000Y-131150000D03*
%TO.P,IC1,12,SW_12*%
%TO.N,Net-(D9-K)*%
X120625000Y-131150000D03*
D19*
%TO.P,IC1,13,GND_13*%
%TO.N,GND*%
X120000000Y-128500000D03*
X119000000Y-128500000D03*
X118000000Y-128500000D03*
D32*
X119000000Y-129000000D03*
D19*
X120000000Y-129500000D03*
X119000000Y-129500000D03*
X118000000Y-129500000D03*
%TD*%
D12*
%TO.P,R1,1*%
%TO.N,VCC*%
X123000000Y-115032000D03*
%TO.P,R1,2*%
%TO.N,Net-(U1-UVLO)*%
X123000000Y-116857000D03*
%TD*%
D33*
%TO.P,Q2,1,D_1_1*%
%TO.N,/Battery_Voltage*%
X118328000Y-108108000D03*
%TO.P,Q2,2,D_2_2*%
X117378000Y-108108000D03*
%TO.P,Q2,3,G_3*%
%TO.N,Net-(Q2-G)*%
X116428000Y-108108000D03*
%TO.P,Q2,4,S_4*%
%TO.N,/PS_Voltage*%
X116428000Y-110708000D03*
%TO.P,Q2,5,D_3_5*%
%TO.N,/Battery_Voltage*%
X117378000Y-110708000D03*
%TO.P,Q2,6,D_4_6*%
X118328000Y-110708000D03*
%TD*%
D12*
%TO.P,R7,1*%
%TO.N,Net-(D7-K)*%
X117000000Y-121087500D03*
%TO.P,R7,2*%
%TO.N,Net-(IC1-~{CHRG})*%
X117000000Y-122912500D03*
%TD*%
D34*
%TO.P,U2,1,VIN_1*%
%TO.N,VCC*%
X130048000Y-111252000D03*
%TO.P,U2,2,GND_2*%
%TO.N,GND*%
X130048000Y-110302000D03*
%TO.P,U2,3,CTL_3*%
X130048000Y-109352000D03*
%TO.P,U2,4,STAT_4*%
%TO.N,Net-(Q2-G)*%
X127773000Y-109352000D03*
%TO.P,U2,5,GATE_5*%
%TO.N,Net-(Q1-G)*%
X127773000Y-110302000D03*
%TO.P,U2,6,SENSE_6*%
%TO.N,/PS_Voltage*%
X127773000Y-111252000D03*
%TD*%
D12*
%TO.P,R2,1*%
%TO.N,Net-(U1-UVLO)*%
X120000000Y-115032000D03*
%TO.P,R2,2*%
%TO.N,Net-(U1-OVP)*%
X120000000Y-116857000D03*
%TD*%
D30*
%TO.P,H2,2*%
%TO.N,GND*%
X146742599Y-146942700D03*
%TD*%
D35*
%TO.P,D3,1,K_1*%
%TO.N,VCC*%
X142000000Y-108000000D03*
%TO.P,D3,2,A_2*%
%TO.N,GND*%
X138000000Y-108000000D03*
%TD*%
D36*
%TO.P,D11,1,K_1*%
%TO.N,/System_Voltage*%
X106000000Y-129000000D03*
%TO.P,D11,2,A_2*%
%TO.N,GND*%
X109300000Y-129000000D03*
%TD*%
D13*
%TO.P,C2,1*%
%TO.N,Net-(U1-dVdT)*%
X134962500Y-121087500D03*
%TO.P,C2,2*%
%TO.N,Net-(U1-MODE)*%
X137037500Y-121087500D03*
%TD*%
D15*
%TO.P,J2,1,Pin_1_1*%
%TO.N,VCC*%
X147000000Y-111380000D03*
D16*
%TO.P,J2,2,Pin_2_2*%
%TO.N,GND*%
X147000000Y-113920000D03*
%TO.P,J2,3,Pin_3_3*%
X147000000Y-116460000D03*
%TO.P,J2,4,Pin_4_4*%
%TO.N,/SDA*%
X147000000Y-119000000D03*
%TO.P,J2,5,Pin_5_5*%
%TO.N,/SCL*%
X147000000Y-121540000D03*
%TO.P,J2,6,Pin_6_6*%
%TO.N,/System_Voltage*%
X147000000Y-124080000D03*
%TD*%
D12*
%TO.P,R3,1*%
%TO.N,Net-(U1-OVP)*%
X117000000Y-115032000D03*
%TO.P,R3,2*%
%TO.N,Net-(U1-MODE)*%
X117000000Y-116857000D03*
%TD*%
D26*
%TO.P,R12,1*%
%TO.N,/PS_Voltage*%
X124968000Y-104648000D03*
%TO.P,R12,2*%
%TO.N,Net-(Q2-G)*%
X126793000Y-104648000D03*
%TD*%
D21*
%TO.P,D12,1,K_1*%
%TO.N,/System_Voltage*%
X105696000Y-123952000D03*
%TO.P,D12,2,A_2*%
%TO.N,Net-(D12-A)*%
X109696000Y-123952000D03*
%TD*%
D37*
%TO.P,C5,1*%
%TO.N,Net-(D9-K)*%
X121579000Y-138197500D03*
%TO.P,C5,2*%
%TO.N,Net-(D6-K)*%
X121579000Y-136122500D03*
%TD*%
D24*
%TO.P,D9,1,K_1*%
%TO.N,Net-(D9-K)*%
X128016000Y-131604000D03*
%TO.P,D9,2,A_2*%
%TO.N,GND*%
X128016000Y-135604000D03*
%TD*%
D38*
%TO.N,/PS_Voltage*%
X132000000Y-105000000D03*
%TO.N,/DC_IN*%
X139700000Y-129540000D03*
%TO.N,/Battery_Voltage*%
X132588000Y-141986000D03*
%TO.N,GND*%
X114300000Y-130810000D03*
X122936000Y-130556000D03*
X139700000Y-131064000D03*
X115570000Y-128270000D03*
X113030000Y-129540000D03*
X134874000Y-127254000D03*
X121920000Y-130556000D03*
X128778000Y-122428000D03*
X113030000Y-128270000D03*
X121666000Y-124968000D03*
X115570000Y-129540000D03*
X140970000Y-124460000D03*
X113030000Y-130810000D03*
X138430000Y-124206000D03*
X115570000Y-130810000D03*
X114300000Y-128270000D03*
X123952000Y-130556000D03*
X114300000Y-129540000D03*
%TO.N,/Thermistor*%
X131318000Y-132334000D03*
X116078000Y-132334000D03*
%TO.N,/System_Voltage*%
X107000000Y-132000000D03*
%TO.N,Net-(Q1-G)*%
X124460000Y-109220000D03*
X127773000Y-110302000D03*
%TO.N,/PS_Voltage*%
X121860000Y-105918000D03*
X114046000Y-110708000D03*
%TD*%
%TO.N,Net-(D8-K)*%
D39*
X114000000Y-121087500D02*
X115275700Y-119811800D01*
X115275700Y-119811800D02*
X121836800Y-119811800D01*
X121836800Y-119811800D02*
X123000000Y-120975000D01*
%TO.N,Net-(D5-K)*%
D40*
X120000000Y-123025000D02*
X120000000Y-126825000D01*
X123000000Y-123025000D02*
X120000000Y-123025000D01*
D39*
X119975000Y-126850000D02*
X120625000Y-126850000D01*
D40*
X136150600Y-129057400D02*
X124536200Y-129057400D01*
X123937500Y-123962500D02*
X123000000Y-123025000D01*
D41*
X119325000Y-126850000D02*
X119975000Y-126850000D01*
D40*
X120000000Y-126825000D02*
X119975000Y-126850000D01*
X138970000Y-126238000D02*
X136150600Y-129057400D01*
X122328800Y-126850000D02*
X119975000Y-126850000D01*
X126000000Y-123962500D02*
X123937500Y-123962500D01*
X124536200Y-129057400D02*
X122328800Y-126850000D01*
%TO.N,/DC_IN*%
D42*
X139700000Y-129540000D02*
X139700000Y-129508000D01*
D40*
X144094200Y-117830600D02*
X144094200Y-125113800D01*
X135000000Y-117175000D02*
X132362500Y-117175000D01*
X138000000Y-117050000D02*
X141962500Y-117050000D01*
X144094200Y-125113800D02*
X142970000Y-126238000D01*
X137875000Y-117175000D02*
X138000000Y-117050000D01*
X142000000Y-117087500D02*
X143351100Y-117087500D01*
X135000000Y-117175000D02*
X137875000Y-117175000D01*
X141962500Y-117050000D02*
X142000000Y-117087500D01*
X132362500Y-117175000D02*
X131450000Y-118087500D01*
X143351100Y-117087500D02*
X144094200Y-117830600D01*
D39*
X131450000Y-118587500D02*
X131450000Y-118087500D01*
D42*
X139700000Y-129508000D02*
X142970000Y-126238000D01*
%TO.N,/Battery_Voltage*%
D40*
X118328000Y-110708000D02*
X118328000Y-112304000D01*
X134014000Y-141986000D02*
X137000000Y-139000000D01*
D42*
X118675000Y-131150000D02*
X118675000Y-132531000D01*
D40*
X118328000Y-112304000D02*
X118110000Y-112522000D01*
X131840000Y-142000000D02*
X132574000Y-142000000D01*
X132588000Y-141986000D02*
X134014000Y-141986000D01*
X111713000Y-121205000D02*
X111713000Y-136652000D01*
X113538000Y-117856000D02*
X112014000Y-119380000D01*
X118110000Y-112522000D02*
X114808000Y-112522000D01*
X114808000Y-112522000D02*
X113538000Y-113792000D01*
X104902000Y-137160000D02*
X106574500Y-135487500D01*
D42*
X113030000Y-133350000D02*
X111713000Y-134667000D01*
D40*
X120142000Y-142858000D02*
X121000000Y-142000000D01*
X113538000Y-113792000D02*
X113538000Y-117856000D01*
X112014000Y-120904000D02*
X111713000Y-121205000D01*
X120142000Y-144780000D02*
X120142000Y-142858000D01*
X146329400Y-142000000D02*
X141037500Y-142000000D01*
X120142000Y-144780000D02*
X108712000Y-144780000D01*
X108712000Y-144780000D02*
X104902000Y-140970000D01*
X111713000Y-136652000D02*
X109622500Y-136652000D01*
X121000000Y-142000000D02*
X131840000Y-142000000D01*
X147000000Y-141329400D02*
X146329400Y-142000000D01*
D42*
X118328000Y-110708000D02*
X118328000Y-108108000D01*
X117378000Y-108108000D02*
X118328000Y-108108000D01*
D40*
X104902000Y-140970000D02*
X104902000Y-137160000D01*
D42*
X117378000Y-108108000D02*
X117378000Y-110708000D01*
D40*
X140000000Y-139000000D02*
X141037500Y-140037500D01*
X147000000Y-140080000D02*
X147000000Y-141329400D01*
D42*
X111713000Y-134667000D02*
X111713000Y-136652000D01*
X117378000Y-110708000D02*
X118328000Y-110708000D01*
X118675000Y-132531000D02*
X117856000Y-133350000D01*
D40*
X112014000Y-119380000D02*
X112014000Y-120904000D01*
D42*
X117856000Y-133350000D02*
X113030000Y-133350000D01*
D40*
X109622500Y-136652000D02*
X108458000Y-135487500D01*
X106574500Y-135487500D02*
X108458000Y-135487500D01*
X132574000Y-142000000D02*
X132588000Y-141986000D01*
X141037500Y-140037500D02*
X141037500Y-142000000D01*
X140000000Y-139000000D02*
X137000000Y-139000000D01*
%TO.N,Net-(U1-~{FLT})*%
D39*
X131450000Y-119087500D02*
X134912500Y-119087500D01*
X134912500Y-119087500D02*
X135000000Y-119000000D01*
%TO.N,GND*%
X117375000Y-127875000D02*
X118000000Y-128500000D01*
X117375000Y-126850000D02*
X117375000Y-127875000D01*
D43*
X129500000Y-121037500D02*
X129500000Y-121706000D01*
X129500000Y-121706000D02*
X128778000Y-122428000D01*
%TO.N,VCC*%
D40*
X126390400Y-117927900D02*
X126550000Y-118087500D01*
D39*
X126550000Y-118587500D02*
X126550000Y-118087500D01*
D40*
X124811000Y-115032000D02*
X126390400Y-116611400D01*
X129570000Y-115032000D02*
X130302000Y-114300000D01*
X124460000Y-110170000D02*
X124422600Y-110207400D01*
X124460000Y-111120000D02*
X123190000Y-111120000D01*
X130048000Y-111252000D02*
X130048000Y-114046000D01*
X126390400Y-116611400D02*
X126390400Y-117927900D01*
X123000000Y-115032000D02*
X124811000Y-115032000D01*
X130048000Y-114046000D02*
X130302000Y-114300000D01*
X147000000Y-111380000D02*
X145380000Y-111380000D01*
X139954000Y-114300000D02*
X141037500Y-113216500D01*
X141314200Y-112000000D02*
X142000000Y-111314200D01*
X141037500Y-113216500D02*
X141037500Y-112000000D01*
X130302000Y-114300000D02*
X139954000Y-114300000D01*
X145380000Y-111380000D02*
X142000000Y-108000000D01*
X141037500Y-112000000D02*
X141314200Y-112000000D01*
X142000000Y-111314200D02*
X142000000Y-108000000D01*
X123000000Y-115032000D02*
X123000000Y-111310000D01*
X123000000Y-111310000D02*
X123190000Y-111120000D01*
X123190000Y-111120000D02*
X121860000Y-111120000D01*
X124811000Y-115032000D02*
X129570000Y-115032000D01*
X124460000Y-111120000D02*
X124460000Y-110170000D01*
X124422600Y-110207400D02*
X121860000Y-110207400D01*
%TO.N,/SCL*%
D39*
X146540000Y-138000000D02*
X147000000Y-137540000D01*
%TO.N,/Thermistor*%
D42*
X118025000Y-131150000D02*
X118025000Y-132165000D01*
X117856000Y-132334000D02*
X116078000Y-132334000D01*
X118025000Y-132165000D02*
X117856000Y-132334000D01*
X131318000Y-132334000D02*
X131446000Y-132334000D01*
X131446000Y-132334000D02*
X131572000Y-132460000D01*
X131572000Y-132460000D02*
X147000000Y-132460000D01*
%TO.N,Net-(U1-UVLO)*%
D39*
X123880114Y-116857000D02*
X126110614Y-119087500D01*
X126110614Y-119087500D02*
X126550000Y-119087500D01*
X121462800Y-115671600D02*
X121462800Y-116535200D01*
X120000000Y-115032000D02*
X120823200Y-115032000D01*
X123000000Y-116857000D02*
X123880114Y-116857000D01*
X120823200Y-115032000D02*
X121462800Y-115671600D01*
X121784600Y-116857000D02*
X123000000Y-116857000D01*
X121462800Y-116535200D02*
X121784600Y-116857000D01*
%TO.N,Net-(U1-OVP)*%
X117000000Y-115032000D02*
X117927600Y-115032000D01*
X123520200Y-118059200D02*
X121202200Y-118059200D01*
X121202200Y-118059200D02*
X120000000Y-116857000D01*
X125548500Y-120087500D02*
X123520200Y-118059200D01*
X118609600Y-116857000D02*
X120000000Y-116857000D01*
X118287800Y-116535200D02*
X118609600Y-116857000D01*
X117927600Y-115032000D02*
X118287800Y-115392200D01*
X126550000Y-120087500D02*
X125548500Y-120087500D01*
X118287800Y-115392200D02*
X118287800Y-116535200D01*
%TO.N,Net-(U1-MODE)*%
X125431700Y-121037500D02*
X127500000Y-121037500D01*
X123164600Y-118770400D02*
X125431700Y-121037500D01*
X128500000Y-120187500D02*
X128475000Y-120162500D01*
X137037500Y-121087500D02*
X137037500Y-124506300D01*
X137037500Y-124506300D02*
X135543800Y-126000000D01*
X127500000Y-120237500D02*
X127425000Y-120162500D01*
X132000000Y-126000000D02*
X129000000Y-126000000D01*
X118084600Y-118770400D02*
X123164600Y-118770400D01*
X117000000Y-117685800D02*
X118084600Y-118770400D01*
X135543800Y-126000000D02*
X132000000Y-126000000D01*
X127500000Y-121037500D02*
X127500000Y-120237500D01*
X117000000Y-116857000D02*
X117000000Y-117685800D01*
X128500000Y-121037500D02*
X128500000Y-120187500D01*
X127500000Y-125518800D02*
X127500000Y-121037500D01*
X127981200Y-126000000D02*
X127500000Y-125518800D01*
X129000000Y-126000000D02*
X127981200Y-126000000D01*
%TO.N,Net-(U1-IMON)*%
X129000000Y-124175000D02*
X130000000Y-123175000D01*
X130000000Y-123175000D02*
X130000000Y-121037500D01*
%TO.N,Net-(U1-ILIM)*%
X131490200Y-124175000D02*
X132000000Y-124175000D01*
X130500000Y-123184800D02*
X131490200Y-124175000D01*
X130500000Y-121037500D02*
X130500000Y-123184800D01*
%TO.N,Net-(U1-dVdT)*%
X131450000Y-120087500D02*
X133962500Y-120087500D01*
X133962500Y-120087500D02*
X134962500Y-121087500D01*
%TO.N,Net-(IC1-~{FAULT})*%
X115000000Y-125000000D02*
X114000000Y-124000000D01*
X118025000Y-126025000D02*
X117000000Y-125000000D01*
X114000000Y-124000000D02*
X114000000Y-122912500D01*
X118025000Y-126850000D02*
X118025000Y-126025000D01*
X117000000Y-125000000D02*
X115000000Y-125000000D01*
%TO.N,Net-(D9-K)*%
D40*
X121579000Y-138197500D02*
X123676500Y-138197500D01*
D42*
X120625000Y-131150000D02*
X120625000Y-132055000D01*
D40*
X124460000Y-133350000D02*
X125476000Y-132334000D01*
D42*
X120625000Y-132055000D02*
X121920000Y-133350000D01*
D40*
X125476000Y-132334000D02*
X126206000Y-131604000D01*
X117515000Y-139297500D02*
X120479000Y-139297500D01*
X126206000Y-131604000D02*
X128016000Y-131604000D01*
D42*
X121920000Y-133350000D02*
X124460000Y-133350000D01*
D40*
X123676500Y-138197500D02*
X124460000Y-137414000D01*
X120479000Y-139297500D02*
X121579000Y-138197500D01*
X124460000Y-137414000D02*
X124460000Y-133350000D01*
%TO.N,Net-(IC1-SENSE)*%
X113538000Y-136652000D02*
X115167500Y-135022500D01*
D42*
X119325000Y-131150000D02*
X119325000Y-133212500D01*
D40*
X115167500Y-135022500D02*
X117515000Y-135022500D01*
D42*
X119325000Y-133212500D02*
X117515000Y-135022500D01*
%TO.N,/System_Voltage*%
D40*
X105696000Y-123952000D02*
X105696000Y-128696000D01*
X105696000Y-128696000D02*
X106000000Y-129000000D01*
X106000000Y-131000000D02*
X107000000Y-132000000D01*
X106000000Y-129000000D02*
X106000000Y-131000000D01*
%TO.N,/PS_Voltage*%
X111542000Y-110708000D02*
X114046000Y-110708000D01*
X125984000Y-106680000D02*
X125984000Y-110490000D01*
X125984000Y-110490000D02*
X126746000Y-111252000D01*
X110857000Y-111393000D02*
X111542000Y-110708000D01*
X121860000Y-105918000D02*
X121860000Y-109220000D01*
X124968000Y-105664000D02*
X125984000Y-106680000D01*
X126746000Y-111252000D02*
X127773000Y-111252000D01*
X124968000Y-104648000D02*
X122936000Y-104648000D01*
X110857000Y-114565400D02*
X110857000Y-111393000D01*
X122936000Y-104648000D02*
X121860000Y-105724000D01*
X124968000Y-104648000D02*
X124968000Y-105664000D01*
X121860000Y-105724000D02*
X121860000Y-105918000D01*
X114046000Y-110708000D02*
X116428000Y-110708000D01*
%TO.N,Net-(D7-K)*%
D39*
X120000000Y-120975000D02*
X117112500Y-120975000D01*
X117112500Y-120975000D02*
X117000000Y-121087500D01*
%TO.N,Net-(D12-A)*%
D40*
X109696000Y-120696000D02*
X109696000Y-123952000D01*
X105954800Y-116954800D02*
X109696000Y-120696000D01*
X105954800Y-114565400D02*
X105954800Y-116954800D01*
%TO.N,Net-(D6-K)*%
X118999000Y-137287000D02*
X120163500Y-136122500D01*
X120163500Y-136122500D02*
X121579000Y-136122500D01*
X113688500Y-138787500D02*
X115189000Y-137287000D01*
X108458000Y-138787500D02*
X113688500Y-138787500D01*
D42*
X119975000Y-131150000D02*
X119975000Y-135934000D01*
D40*
X115189000Y-137287000D02*
X118999000Y-137287000D01*
%TO.N,Net-(IC1-~{CHRG})*%
D39*
X118675000Y-124587500D02*
X118675000Y-126850000D01*
X117000000Y-122912500D02*
X118675000Y-124587500D01*
%TO.N,Net-(Q2-G)*%
D40*
X116428000Y-105060000D02*
X116428000Y-108108000D01*
X127773000Y-109352000D02*
X127773000Y-105628000D01*
X126031000Y-102870000D02*
X118618000Y-102870000D01*
X118618000Y-102870000D02*
X116428000Y-105060000D01*
X126793000Y-103632000D02*
X126031000Y-102870000D01*
X126793000Y-104648000D02*
X126793000Y-103632000D01*
X127773000Y-105628000D02*
X126793000Y-104648000D01*
%TD*%
%TA.AperFunction,Conductor*%
%TO.N,GND*%
G36*
X112763161Y-123368006D02*
G01*
X112778804Y-123369709D01*
X112794290Y-123382222D01*
X112812403Y-123390494D01*
X112821616Y-123404302D01*
X112833149Y-123413621D01*
X112848904Y-123445200D01*
X112856828Y-123469110D01*
X112865185Y-123494331D01*
X112865187Y-123494336D01*
X112900069Y-123550888D01*
X112957288Y-123643656D01*
X113081344Y-123767712D01*
X113230666Y-123859814D01*
X113314503Y-123887595D01*
X113371948Y-123927366D01*
X113398771Y-123991882D01*
X113399499Y-124005300D01*
X113399499Y-124079054D01*
X113399498Y-124079054D01*
X113402431Y-124089999D01*
X113440423Y-124231785D01*
X113464358Y-124273241D01*
X113469358Y-124281900D01*
X113469359Y-124281904D01*
X113469360Y-124281904D01*
X113516284Y-124363181D01*
X113519479Y-124368714D01*
X113519481Y-124368717D01*
X113638349Y-124487585D01*
X113638354Y-124487589D01*
X114631284Y-125480520D01*
X114631286Y-125480521D01*
X114631290Y-125480524D01*
X114768209Y-125559573D01*
X114768216Y-125559577D01*
X114920943Y-125600501D01*
X114920945Y-125600501D01*
X115086654Y-125600501D01*
X115086670Y-125600500D01*
X116699903Y-125600500D01*
X116766942Y-125620185D01*
X116787584Y-125636819D01*
X117288181Y-126137416D01*
X117321666Y-126198739D01*
X117324500Y-126225097D01*
X117324500Y-127514363D01*
X117339953Y-127631753D01*
X117339956Y-127631762D01*
X117400464Y-127777841D01*
X117496718Y-127903282D01*
X117622159Y-127999536D01*
X117768238Y-128060044D01*
X117885639Y-128075500D01*
X118164360Y-128075499D01*
X118164361Y-128075499D01*
X118176594Y-128073888D01*
X118281762Y-128060044D01*
X118302545Y-128051434D01*
X118372014Y-128043965D01*
X118397453Y-128051434D01*
X118418238Y-128060044D01*
X118535639Y-128075500D01*
X118814360Y-128075499D01*
X118814361Y-128075499D01*
X118826594Y-128073888D01*
X118931762Y-128060044D01*
X118952545Y-128051434D01*
X119022014Y-128043965D01*
X119047453Y-128051434D01*
X119068238Y-128060044D01*
X119185639Y-128075500D01*
X119464360Y-128075499D01*
X119464361Y-128075499D01*
X119476594Y-128073888D01*
X119581762Y-128060044D01*
X119602545Y-128051434D01*
X119672014Y-128043965D01*
X119697453Y-128051434D01*
X119718238Y-128060044D01*
X119835639Y-128075500D01*
X120114360Y-128075499D01*
X120114361Y-128075499D01*
X120126594Y-128073888D01*
X120231762Y-128060044D01*
X120252545Y-128051434D01*
X120322014Y-128043965D01*
X120347453Y-128051434D01*
X120368238Y-128060044D01*
X120485639Y-128075500D01*
X120764360Y-128075499D01*
X120764363Y-128075499D01*
X120881753Y-128060046D01*
X120881757Y-128060044D01*
X120881762Y-128060044D01*
X121027841Y-127999536D01*
X121153282Y-127903282D01*
X121238124Y-127792712D01*
X121294552Y-127751511D01*
X121336500Y-127744200D01*
X121907049Y-127744200D01*
X121974088Y-127763885D01*
X121994730Y-127780519D01*
X123838503Y-129624292D01*
X123838532Y-129624323D01*
X123966176Y-129751967D01*
X123966179Y-129751969D01*
X123966181Y-129751971D01*
X124026734Y-129792431D01*
X124112637Y-129849831D01*
X124219755Y-129894200D01*
X124275371Y-129917237D01*
X124311419Y-129924407D01*
X124361702Y-129934409D01*
X124361726Y-129934413D01*
X124361750Y-129934418D01*
X124426533Y-129947304D01*
X124448127Y-129951600D01*
X124448128Y-129951600D01*
X124448129Y-129951600D01*
X126664448Y-129951600D01*
X126731487Y-129971285D01*
X126777242Y-130024089D01*
X126787186Y-130093247D01*
X126769988Y-130140694D01*
X126756979Y-130161786D01*
X126681187Y-130284663D01*
X126681186Y-130284666D01*
X126626001Y-130451203D01*
X126626001Y-130451204D01*
X126626000Y-130451204D01*
X126615500Y-130553983D01*
X126615500Y-130585800D01*
X126595815Y-130652839D01*
X126543011Y-130698594D01*
X126491500Y-130709800D01*
X126117924Y-130709800D01*
X125945174Y-130744161D01*
X125945171Y-130744163D01*
X125897507Y-130763905D01*
X125871929Y-130774500D01*
X125782439Y-130811567D01*
X125635981Y-130909428D01*
X125635977Y-130909431D01*
X124905981Y-131639430D01*
X123932230Y-132613181D01*
X123870907Y-132646666D01*
X123844549Y-132649500D01*
X122261519Y-132649500D01*
X122194480Y-132629815D01*
X122173838Y-132613181D01*
X121361819Y-131801162D01*
X121328334Y-131739839D01*
X121325500Y-131713481D01*
X121325500Y-131071018D01*
X121325499Y-131071004D01*
X121325499Y-130485636D01*
X121310046Y-130368246D01*
X121310044Y-130368239D01*
X121310044Y-130368238D01*
X121249536Y-130222159D01*
X121153282Y-130096718D01*
X121027841Y-130000464D01*
X120934669Y-129961871D01*
X120881762Y-129939956D01*
X120881760Y-129939955D01*
X120764361Y-129924500D01*
X120485636Y-129924500D01*
X120368246Y-129939953D01*
X120368234Y-129939957D01*
X120347450Y-129948566D01*
X120277981Y-129956033D01*
X120252550Y-129948566D01*
X120231765Y-129939957D01*
X120231760Y-129939955D01*
X120114361Y-129924500D01*
X119835636Y-129924500D01*
X119718246Y-129939953D01*
X119718234Y-129939957D01*
X119697450Y-129948566D01*
X119627981Y-129956033D01*
X119602550Y-129948566D01*
X119581765Y-129939957D01*
X119581760Y-129939955D01*
X119464361Y-129924500D01*
X119185636Y-129924500D01*
X119068246Y-129939953D01*
X119068234Y-129939957D01*
X119047450Y-129948566D01*
X118977981Y-129956033D01*
X118952550Y-129948566D01*
X118931765Y-129939957D01*
X118931760Y-129939955D01*
X118814361Y-129924500D01*
X118535636Y-129924500D01*
X118418246Y-129939953D01*
X118418234Y-129939957D01*
X118397450Y-129948566D01*
X118327981Y-129956033D01*
X118302550Y-129948566D01*
X118281765Y-129939957D01*
X118281760Y-129939955D01*
X118164361Y-129924500D01*
X117885636Y-129924500D01*
X117768246Y-129939953D01*
X117768234Y-129939957D01*
X117747450Y-129948566D01*
X117677981Y-129956033D01*
X117652550Y-129948566D01*
X117631765Y-129939957D01*
X117631760Y-129939955D01*
X117514361Y-129924500D01*
X117235636Y-129924500D01*
X117118246Y-129939953D01*
X117118237Y-129939956D01*
X116972160Y-130000463D01*
X116846718Y-130096718D01*
X116750463Y-130222160D01*
X116689956Y-130368237D01*
X116689955Y-130368239D01*
X116679033Y-130451204D01*
X116674500Y-130485639D01*
X116674500Y-131056344D01*
X116674501Y-131509500D01*
X116671950Y-131518186D01*
X116673239Y-131527147D01*
X116662261Y-131551183D01*
X116654817Y-131576539D01*
X116647974Y-131582467D01*
X116644214Y-131590703D01*
X116621982Y-131604989D01*
X116602013Y-131622294D01*
X116591497Y-131624581D01*
X116585436Y-131628477D01*
X116550501Y-131633500D01*
X116503316Y-131633500D01*
X116455864Y-131624061D01*
X116311501Y-131564264D01*
X116311489Y-131564261D01*
X116156845Y-131533500D01*
X116156842Y-131533500D01*
X115999158Y-131533500D01*
X115999155Y-131533500D01*
X115844510Y-131564261D01*
X115844498Y-131564264D01*
X115698827Y-131624602D01*
X115698814Y-131624609D01*
X115567711Y-131712210D01*
X115567707Y-131712213D01*
X115456213Y-131823707D01*
X115456210Y-131823711D01*
X115368609Y-131954814D01*
X115368602Y-131954827D01*
X115308264Y-132100498D01*
X115308261Y-132100510D01*
X115277500Y-132255153D01*
X115277500Y-132255158D01*
X115277500Y-132412842D01*
X115277500Y-132412844D01*
X115277499Y-132412844D01*
X115295097Y-132501308D01*
X115288870Y-132570900D01*
X115246007Y-132626077D01*
X115180118Y-132649322D01*
X115173480Y-132649500D01*
X112961003Y-132649500D01*
X112852590Y-132671065D01*
X112852589Y-132671065D01*
X112825671Y-132676420D01*
X112778651Y-132695896D01*
X112709182Y-132703364D01*
X112646703Y-132672088D01*
X112611051Y-132611999D01*
X112607200Y-132581334D01*
X112607200Y-123484207D01*
X112611632Y-123469110D01*
X112611092Y-123453383D01*
X112621275Y-123436270D01*
X112626885Y-123417168D01*
X112638776Y-123406864D01*
X112646824Y-123393341D01*
X112664642Y-123384450D01*
X112679689Y-123371413D01*
X112695262Y-123369173D01*
X112709344Y-123362148D01*
X112729138Y-123364302D01*
X112748847Y-123361469D01*
X112763161Y-123368006D01*
G37*
%TD.AperFunction*%
%TA.AperFunction,Conductor*%
G36*
X122075547Y-123938885D02*
G01*
X122078125Y-123940726D01*
X122081342Y-123942710D01*
X122081344Y-123942712D01*
X122230666Y-124034814D01*
X122397203Y-124089999D01*
X122499991Y-124100500D01*
X122759548Y-124100499D01*
X122826587Y-124120183D01*
X122847229Y-124136818D01*
X123239803Y-124529392D01*
X123239832Y-124529423D01*
X123367477Y-124657068D01*
X123367485Y-124657074D01*
X123483476Y-124734577D01*
X123483477Y-124734577D01*
X123513937Y-124754930D01*
X123513938Y-124754930D01*
X123513939Y-124754931D01*
X123518538Y-124756836D01*
X123676671Y-124822337D01*
X123849423Y-124856699D01*
X123849427Y-124856700D01*
X123849428Y-124856700D01*
X123849429Y-124856700D01*
X124968970Y-124856700D01*
X125036009Y-124876385D01*
X125052391Y-124889586D01*
X125056341Y-124892709D01*
X125056344Y-124892712D01*
X125205666Y-124984814D01*
X125372203Y-125039999D01*
X125474991Y-125050500D01*
X126525008Y-125050499D01*
X126525016Y-125050498D01*
X126525019Y-125050498D01*
X126587004Y-125044166D01*
X126627797Y-125039999D01*
X126736498Y-125003978D01*
X126806324Y-125001577D01*
X126866366Y-125037308D01*
X126897559Y-125099828D01*
X126899500Y-125121685D01*
X126899500Y-125432130D01*
X126899499Y-125432148D01*
X126899499Y-125597854D01*
X126899498Y-125597854D01*
X126936625Y-125736413D01*
X126940423Y-125750585D01*
X126964021Y-125791457D01*
X127019480Y-125887516D01*
X127131284Y-125999320D01*
X127131285Y-125999321D01*
X127612484Y-126480520D01*
X127612486Y-126480521D01*
X127612490Y-126480524D01*
X127749409Y-126559573D01*
X127749416Y-126559577D01*
X127824080Y-126579583D01*
X127883738Y-126615947D01*
X127897523Y-126634261D01*
X127957288Y-126731156D01*
X128081344Y-126855212D01*
X128230666Y-126947314D01*
X128397203Y-127002499D01*
X128499991Y-127013000D01*
X129500008Y-127012999D01*
X129500016Y-127012998D01*
X129500019Y-127012998D01*
X129556302Y-127007248D01*
X129602797Y-127002499D01*
X129769334Y-126947314D01*
X129918656Y-126855212D01*
X130042712Y-126731156D01*
X130086970Y-126659402D01*
X130138917Y-126612679D01*
X130192508Y-126600500D01*
X130807492Y-126600500D01*
X130874531Y-126620185D01*
X130913029Y-126659401D01*
X130957288Y-126731156D01*
X131081344Y-126855212D01*
X131230666Y-126947314D01*
X131397203Y-127002499D01*
X131499991Y-127013000D01*
X132500008Y-127012999D01*
X132500016Y-127012998D01*
X132500019Y-127012998D01*
X132556302Y-127007248D01*
X132602797Y-127002499D01*
X132769334Y-126947314D01*
X132918656Y-126855212D01*
X133042712Y-126731156D01*
X133086970Y-126659402D01*
X133138917Y-126612679D01*
X133192508Y-126600500D01*
X135457131Y-126600500D01*
X135457147Y-126600501D01*
X135464743Y-126600501D01*
X135622854Y-126600501D01*
X135622857Y-126600501D01*
X135775585Y-126559577D01*
X135825704Y-126530639D01*
X135912516Y-126480520D01*
X136024320Y-126368716D01*
X136024320Y-126368714D01*
X136034528Y-126358507D01*
X136034529Y-126358504D01*
X137014508Y-125378526D01*
X137075829Y-125345043D01*
X137145521Y-125350027D01*
X137201454Y-125391899D01*
X137225871Y-125457363D01*
X137225545Y-125478810D01*
X137219500Y-125537978D01*
X137219500Y-126672547D01*
X137199815Y-126739586D01*
X137183180Y-126760228D01*
X136150698Y-127792713D01*
X135816530Y-128126881D01*
X135755207Y-128160366D01*
X135728849Y-128163200D01*
X124957951Y-128163200D01*
X124890912Y-128143515D01*
X124870270Y-128126881D01*
X123027711Y-126284322D01*
X123027691Y-126284300D01*
X122898822Y-126155431D01*
X122898818Y-126155428D01*
X122867771Y-126134683D01*
X122815116Y-126099500D01*
X122752363Y-126057569D01*
X122632691Y-126008000D01*
X122628394Y-126006220D01*
X122628390Y-126006218D01*
X122589629Y-125990163D01*
X122463943Y-125965163D01*
X122432562Y-125958921D01*
X122416873Y-125955800D01*
X122416872Y-125955800D01*
X122416871Y-125955800D01*
X121336500Y-125955800D01*
X121269461Y-125936115D01*
X121238124Y-125907287D01*
X121222954Y-125887517D01*
X121153282Y-125796718D01*
X121153280Y-125796717D01*
X121153280Y-125796716D01*
X121027841Y-125700464D01*
X120970746Y-125676814D01*
X120916343Y-125632972D01*
X120894279Y-125566678D01*
X120894200Y-125562253D01*
X120894200Y-124043200D01*
X120913885Y-123976161D01*
X120966689Y-123930406D01*
X121018200Y-123919200D01*
X122008508Y-123919200D01*
X122075547Y-123938885D01*
G37*
%TD.AperFunction*%
%TA.AperFunction,Conductor*%
G36*
X140484186Y-117946750D02*
G01*
X140493148Y-117945462D01*
X140517188Y-117956440D01*
X140542540Y-117963885D01*
X140548467Y-117970725D01*
X140556704Y-117974487D01*
X140570993Y-117996721D01*
X140588295Y-118016689D01*
X140590582Y-118027203D01*
X140594478Y-118033265D01*
X140599501Y-118068200D01*
X140599501Y-118137518D01*
X140610000Y-118240296D01*
X140610001Y-118240299D01*
X140665185Y-118406831D01*
X140665187Y-118406836D01*
X140681785Y-118433745D01*
X140757288Y-118556156D01*
X140881344Y-118680212D01*
X141030666Y-118772314D01*
X141197203Y-118827499D01*
X141299991Y-118838000D01*
X142700008Y-118837999D01*
X142802797Y-118827499D01*
X142969334Y-118772314D01*
X143010904Y-118746673D01*
X143078295Y-118728233D01*
X143144958Y-118749155D01*
X143189728Y-118802797D01*
X143200000Y-118852212D01*
X143200000Y-124692046D01*
X143191355Y-124721486D01*
X143184832Y-124751473D01*
X143181077Y-124756488D01*
X143180315Y-124759085D01*
X143163681Y-124779727D01*
X143142227Y-124801181D01*
X143080904Y-124834666D01*
X143054546Y-124837500D01*
X141919998Y-124837500D01*
X141919981Y-124837501D01*
X141817203Y-124848000D01*
X141817200Y-124848001D01*
X141650668Y-124903185D01*
X141650663Y-124903187D01*
X141501342Y-124995289D01*
X141377289Y-125119342D01*
X141285187Y-125268663D01*
X141285185Y-125268668D01*
X141285127Y-125268844D01*
X141230001Y-125435203D01*
X141230001Y-125435204D01*
X141230000Y-125435204D01*
X141219500Y-125537983D01*
X141219500Y-126938018D01*
X141219598Y-126939927D01*
X141219500Y-126940332D01*
X141219501Y-126941164D01*
X141219302Y-126941164D01*
X141203342Y-127007880D01*
X141183439Y-127033902D01*
X140833230Y-127384111D01*
X140771907Y-127417596D01*
X140702215Y-127412612D01*
X140646282Y-127370740D01*
X140621865Y-127305276D01*
X140636717Y-127237003D01*
X140640001Y-127231348D01*
X140654814Y-127207334D01*
X140709999Y-127040797D01*
X140720500Y-126938009D01*
X140720499Y-125537992D01*
X140714453Y-125478810D01*
X140709999Y-125435203D01*
X140709998Y-125435200D01*
X140706613Y-125424984D01*
X140654814Y-125268666D01*
X140562712Y-125119344D01*
X140438656Y-124995288D01*
X140294151Y-124906157D01*
X140289336Y-124903187D01*
X140289331Y-124903185D01*
X140287862Y-124902698D01*
X140122797Y-124848001D01*
X140122795Y-124848000D01*
X140020010Y-124837500D01*
X137919998Y-124837500D01*
X137919981Y-124837501D01*
X137817203Y-124848000D01*
X137817200Y-124848001D01*
X137761605Y-124866424D01*
X137691776Y-124868826D01*
X137631735Y-124833094D01*
X137600542Y-124770573D01*
X137602826Y-124716626D01*
X137638001Y-124585357D01*
X137638001Y-124427242D01*
X137638001Y-124419647D01*
X137638000Y-124419629D01*
X137638000Y-122351267D01*
X137657685Y-122284228D01*
X137696901Y-122245730D01*
X137843656Y-122155212D01*
X137967712Y-122031156D01*
X138059814Y-121881834D01*
X138114999Y-121715297D01*
X138125500Y-121612509D01*
X138125499Y-120562492D01*
X138114999Y-120459703D01*
X138059814Y-120293166D01*
X137967712Y-120143844D01*
X137843656Y-120019788D01*
X137694334Y-119927686D01*
X137527797Y-119872501D01*
X137527795Y-119872500D01*
X137425010Y-119862000D01*
X136649998Y-119862000D01*
X136649980Y-119862001D01*
X136547203Y-119872500D01*
X136547200Y-119872501D01*
X136380668Y-119927685D01*
X136380663Y-119927687D01*
X136231342Y-120019789D01*
X136107285Y-120143846D01*
X136105537Y-120146682D01*
X136103829Y-120148217D01*
X136102807Y-120149511D01*
X136102585Y-120149336D01*
X136053589Y-120193405D01*
X135984626Y-120204626D01*
X135920544Y-120176782D01*
X135909202Y-120166033D01*
X135900878Y-120157083D01*
X135892712Y-120143844D01*
X135833379Y-120084511D01*
X135831863Y-120082881D01*
X135817198Y-120053547D01*
X135801495Y-120024789D01*
X135801660Y-120022468D01*
X135800620Y-120020386D01*
X135804140Y-119987794D01*
X135806479Y-119955097D01*
X135807874Y-119953233D01*
X135808124Y-119950920D01*
X135828710Y-119925399D01*
X135848351Y-119899164D01*
X135851730Y-119896863D01*
X135851992Y-119896539D01*
X135852412Y-119896399D01*
X135857544Y-119892905D01*
X135918656Y-119855212D01*
X136042712Y-119731156D01*
X136134814Y-119581834D01*
X136189999Y-119415297D01*
X136200500Y-119312509D01*
X136200499Y-118687492D01*
X136200288Y-118685430D01*
X136189999Y-118584703D01*
X136189998Y-118584700D01*
X136139976Y-118433745D01*
X136134814Y-118418166D01*
X136042712Y-118268844D01*
X136042710Y-118268842D01*
X136038920Y-118262697D01*
X136040363Y-118261806D01*
X136017573Y-118205312D01*
X136030615Y-118136671D01*
X136078697Y-118085977D01*
X136140980Y-118069200D01*
X137176258Y-118069200D01*
X137215262Y-118075494D01*
X137238201Y-118083095D01*
X137372203Y-118127499D01*
X137474991Y-118138000D01*
X138525008Y-118137999D01*
X138525016Y-118137998D01*
X138525019Y-118137998D01*
X138581302Y-118132248D01*
X138627797Y-118127499D01*
X138794334Y-118072314D01*
X138943656Y-117980212D01*
X138943662Y-117980205D01*
X138949319Y-117975734D01*
X138950161Y-117976799D01*
X139004672Y-117947034D01*
X139031030Y-117944200D01*
X140475501Y-117944200D01*
X140484186Y-117946750D01*
G37*
%TD.AperFunction*%
%TA.AperFunction,Conductor*%
G36*
X129359994Y-121964618D02*
G01*
X129395648Y-122024706D01*
X129399500Y-122055375D01*
X129399500Y-122874902D01*
X129390855Y-122904342D01*
X129384332Y-122934329D01*
X129380577Y-122939344D01*
X129379815Y-122941941D01*
X129363185Y-122962578D01*
X129277149Y-123048615D01*
X129200082Y-123125682D01*
X129138759Y-123159166D01*
X129112401Y-123162000D01*
X128499998Y-123162000D01*
X128499980Y-123162001D01*
X128397203Y-123172500D01*
X128397200Y-123172501D01*
X128263504Y-123216804D01*
X128193675Y-123219206D01*
X128133634Y-123183474D01*
X128102441Y-123120953D01*
X128100500Y-123099098D01*
X128100500Y-122071600D01*
X128109073Y-122042403D01*
X128115414Y-122012641D01*
X128118821Y-122009203D01*
X128120185Y-122004561D01*
X128143175Y-121984639D01*
X128164606Y-121963024D01*
X128170268Y-121961163D01*
X128172989Y-121958806D01*
X128197622Y-121950548D01*
X128202921Y-121949371D01*
X128209472Y-121948509D01*
X128212553Y-121947232D01*
X128223122Y-121944886D01*
X128247569Y-121946529D01*
X128271925Y-121943892D01*
X128282514Y-121947001D01*
X128282674Y-121946405D01*
X128290524Y-121948508D01*
X128290526Y-121948508D01*
X128290528Y-121948509D01*
X128400599Y-121963000D01*
X128599400Y-121962999D01*
X128599401Y-121962999D01*
X128616087Y-121960802D01*
X128709472Y-121948509D01*
X128709475Y-121948507D01*
X128717326Y-121946405D01*
X128718210Y-121949707D01*
X128771925Y-121943892D01*
X128782514Y-121947001D01*
X128782674Y-121946405D01*
X128790524Y-121948508D01*
X128790526Y-121948508D01*
X128790528Y-121948509D01*
X128900599Y-121963000D01*
X129099400Y-121962999D01*
X129099403Y-121962999D01*
X129209463Y-121948511D01*
X129209466Y-121948509D01*
X129209472Y-121948509D01*
X129228047Y-121940814D01*
X129297514Y-121933345D01*
X129359994Y-121964618D01*
G37*
%TD.AperFunction*%
%TA.AperFunction,Conductor*%
G36*
X147003032Y-101500648D02*
G01*
X147336929Y-101517052D01*
X147349037Y-101518245D01*
X147452146Y-101533539D01*
X147676699Y-101566849D01*
X147688617Y-101569219D01*
X148009951Y-101649709D01*
X148021588Y-101653240D01*
X148092806Y-101678722D01*
X148333467Y-101764832D01*
X148344688Y-101769479D01*
X148644163Y-101911120D01*
X148654871Y-101916844D01*
X148938988Y-102087137D01*
X148949103Y-102093895D01*
X149169913Y-102257659D01*
X149215170Y-102291224D01*
X149224576Y-102298944D01*
X149470013Y-102521395D01*
X149478604Y-102529986D01*
X149576400Y-102637887D01*
X149701055Y-102775423D01*
X149708775Y-102784829D01*
X149906102Y-103050893D01*
X149912862Y-103061011D01*
X149961703Y-103142498D01*
X150041776Y-103276092D01*
X150083148Y-103345116D01*
X150088883Y-103355844D01*
X150215500Y-103623554D01*
X150230514Y-103655297D01*
X150235170Y-103666540D01*
X150346759Y-103978411D01*
X150350292Y-103990055D01*
X150430777Y-104311369D01*
X150433151Y-104323305D01*
X150481754Y-104650962D01*
X150482947Y-104663071D01*
X150499351Y-104996966D01*
X150499500Y-105003051D01*
X150499500Y-146996948D01*
X150499351Y-147003033D01*
X150482947Y-147336928D01*
X150481754Y-147349037D01*
X150433151Y-147676694D01*
X150430777Y-147688630D01*
X150350292Y-148009944D01*
X150346759Y-148021588D01*
X150235170Y-148333459D01*
X150230514Y-148344702D01*
X150088885Y-148644151D01*
X150083148Y-148654883D01*
X149912862Y-148938988D01*
X149906102Y-148949106D01*
X149708775Y-149215170D01*
X149701055Y-149224576D01*
X149478611Y-149470006D01*
X149470006Y-149478611D01*
X149224576Y-149701055D01*
X149215170Y-149708775D01*
X148949106Y-149906102D01*
X148938988Y-149912862D01*
X148654883Y-150083148D01*
X148644151Y-150088885D01*
X148344702Y-150230514D01*
X148333459Y-150235170D01*
X148021588Y-150346759D01*
X148009944Y-150350292D01*
X147688630Y-150430777D01*
X147676694Y-150433151D01*
X147349037Y-150481754D01*
X147336928Y-150482947D01*
X147021989Y-150498419D01*
X147003031Y-150499351D01*
X146996949Y-150499500D01*
X114001697Y-150499500D01*
X113998339Y-150499455D01*
X113326641Y-150481258D01*
X113319935Y-150480894D01*
X112651914Y-150426499D01*
X112645238Y-150425773D01*
X111981124Y-150335290D01*
X111974497Y-150334203D01*
X111316289Y-150207904D01*
X111309730Y-150206461D01*
X110659284Y-150044702D01*
X110652813Y-150042905D01*
X110012106Y-149846178D01*
X110005742Y-149844034D01*
X109376608Y-149612901D01*
X109370369Y-149610415D01*
X108754679Y-149345565D01*
X108748584Y-149342745D01*
X108148130Y-149044947D01*
X108142197Y-149041801D01*
X107558759Y-148711939D01*
X107553005Y-148708477D01*
X107452368Y-148644151D01*
X106988261Y-148347499D01*
X106982726Y-148343747D01*
X106768573Y-148189921D01*
X106438352Y-147952723D01*
X106433006Y-147948659D01*
X105910625Y-147528758D01*
X105905506Y-147524411D01*
X105406589Y-147076812D01*
X105401714Y-147072193D01*
X104927806Y-146598285D01*
X104923187Y-146593410D01*
X104807983Y-146464998D01*
X104475586Y-146094491D01*
X104471241Y-146089374D01*
X104051340Y-145566993D01*
X104047276Y-145561647D01*
X103684364Y-145056410D01*
X103656246Y-145017265D01*
X103652505Y-145011747D01*
X103291517Y-144446987D01*
X103288060Y-144441240D01*
X102974027Y-143885800D01*
X102958196Y-143857798D01*
X102955052Y-143851869D01*
X102916632Y-143774402D01*
X102657249Y-143251405D01*
X102654434Y-143245320D01*
X102653130Y-143242289D01*
X102389579Y-142629618D01*
X102387098Y-142623391D01*
X102155959Y-141994239D01*
X102153827Y-141987911D01*
X101957089Y-141347170D01*
X101955301Y-141340732D01*
X101793536Y-140690260D01*
X101792095Y-140683710D01*
X101775958Y-140599610D01*
X101665791Y-140025475D01*
X101664713Y-140018903D01*
X101574224Y-139354750D01*
X101573500Y-139348085D01*
X101573436Y-139347304D01*
X101519104Y-138680057D01*
X101518741Y-138673358D01*
X101517562Y-138629853D01*
X101500545Y-138001661D01*
X101500500Y-137998303D01*
X101500500Y-137071929D01*
X104007800Y-137071929D01*
X104007800Y-137077045D01*
X104007800Y-141058076D01*
X104042160Y-141230820D01*
X104042163Y-141230829D01*
X104109566Y-141393557D01*
X104109567Y-141393560D01*
X104109569Y-141393563D01*
X104131209Y-141425949D01*
X104207427Y-141540017D01*
X104207428Y-141540018D01*
X104207429Y-141540019D01*
X104331981Y-141664571D01*
X104331982Y-141664571D01*
X104339049Y-141671638D01*
X104339048Y-141671638D01*
X104339052Y-141671641D01*
X108141977Y-145474568D01*
X108141981Y-145474571D01*
X108280299Y-145566993D01*
X108288438Y-145572431D01*
X108383765Y-145611916D01*
X108451171Y-145639837D01*
X108623924Y-145674199D01*
X108623928Y-145674200D01*
X108623929Y-145674200D01*
X108800072Y-145674200D01*
X118761724Y-145674200D01*
X118828763Y-145693885D01*
X118874518Y-145746689D01*
X118885082Y-145785598D01*
X118894500Y-145877794D01*
X118894501Y-145877796D01*
X118949686Y-146044335D01*
X118949687Y-146044337D01*
X119041786Y-146193651D01*
X119041789Y-146193655D01*
X119165844Y-146317710D01*
X119165848Y-146317713D01*
X119315162Y-146409812D01*
X119315164Y-146409813D01*
X119315166Y-146409814D01*
X119481703Y-146464999D01*
X119584492Y-146475500D01*
X119584497Y-146475500D01*
X120699503Y-146475500D01*
X120699508Y-146475500D01*
X120802297Y-146464999D01*
X120968834Y-146409814D01*
X121118155Y-146317711D01*
X121242211Y-146193655D01*
X121334314Y-146044334D01*
X121389499Y-145877797D01*
X121400000Y-145775008D01*
X121400000Y-143784992D01*
X121389499Y-143682203D01*
X121334314Y-143515666D01*
X121242211Y-143366345D01*
X121157908Y-143282042D01*
X121153569Y-143274096D01*
X121146322Y-143268671D01*
X121137087Y-143243911D01*
X121124423Y-143220719D01*
X121125068Y-143211689D01*
X121121905Y-143203207D01*
X121127521Y-143177386D01*
X121129407Y-143151027D01*
X121135225Y-143141973D01*
X121136757Y-143134934D01*
X121157908Y-143106680D01*
X121334070Y-142930519D01*
X121395393Y-142897034D01*
X121421751Y-142894200D01*
X132662073Y-142894200D01*
X132662073Y-142894199D01*
X132720475Y-142882582D01*
X132744666Y-142880200D01*
X134102073Y-142880200D01*
X134102073Y-142880199D01*
X134204445Y-142859837D01*
X134274829Y-142845837D01*
X134322492Y-142826094D01*
X134437563Y-142778431D01*
X134510791Y-142729500D01*
X134584019Y-142680571D01*
X134708571Y-142556019D01*
X134708571Y-142556017D01*
X134718779Y-142545810D01*
X134718780Y-142545807D01*
X137334071Y-139930519D01*
X137395394Y-139897034D01*
X137421752Y-139894200D01*
X139578249Y-139894200D01*
X139645288Y-139913885D01*
X139665930Y-139930519D01*
X140106981Y-140371570D01*
X140140466Y-140432893D01*
X140143300Y-140459251D01*
X140143300Y-140968970D01*
X140123615Y-141036009D01*
X140110413Y-141052391D01*
X140107290Y-141056341D01*
X140015187Y-141205663D01*
X140015185Y-141205668D01*
X140014555Y-141207570D01*
X139960001Y-141372203D01*
X139960001Y-141372204D01*
X139960000Y-141372204D01*
X139949500Y-141474983D01*
X139949500Y-142525001D01*
X139949501Y-142525019D01*
X139960000Y-142627796D01*
X139960001Y-142627799D01*
X140007097Y-142769924D01*
X140015186Y-142794334D01*
X140107288Y-142943656D01*
X140231344Y-143067712D01*
X140380666Y-143159814D01*
X140547203Y-143214999D01*
X140649991Y-143225500D01*
X141425008Y-143225499D01*
X141425016Y-143225498D01*
X141425019Y-143225498D01*
X141481302Y-143219748D01*
X141527797Y-143214999D01*
X141694334Y-143159814D01*
X141843656Y-143067712D01*
X141967712Y-142943656D01*
X141967713Y-142943653D01*
X141967716Y-142943651D01*
X141969587Y-142941286D01*
X141971282Y-142940085D01*
X141972819Y-142938549D01*
X141973081Y-142938811D01*
X142026610Y-142900911D01*
X142066850Y-142894200D01*
X146417473Y-142894200D01*
X146426670Y-142892370D01*
X146503850Y-142877018D01*
X146590229Y-142859837D01*
X146637892Y-142840094D01*
X146752963Y-142792431D01*
X146826191Y-142743500D01*
X146899419Y-142694571D01*
X147023971Y-142570019D01*
X147023972Y-142570016D01*
X147694571Y-141899419D01*
X147792431Y-141752962D01*
X147859837Y-141590228D01*
X147874215Y-141517938D01*
X147906598Y-141456030D01*
X147952500Y-141425949D01*
X147957481Y-141424091D01*
X147957483Y-141424091D01*
X148092331Y-141373796D01*
X148207546Y-141287546D01*
X148293796Y-141172331D01*
X148344091Y-141037483D01*
X148350500Y-140977873D01*
X148350499Y-139182128D01*
X148345299Y-139133757D01*
X148344091Y-139122516D01*
X148293797Y-138987671D01*
X148293793Y-138987664D01*
X148207547Y-138872455D01*
X148207544Y-138872452D01*
X148092335Y-138786206D01*
X148092328Y-138786202D01*
X147960917Y-138737189D01*
X147904983Y-138695318D01*
X147880566Y-138629853D01*
X147895418Y-138561580D01*
X147916563Y-138533332D01*
X148030104Y-138419792D01*
X148155051Y-138247816D01*
X148251557Y-138058412D01*
X148317246Y-137856243D01*
X148350500Y-137646287D01*
X148350500Y-137433713D01*
X148317246Y-137223757D01*
X148251557Y-137021588D01*
X148155051Y-136832184D01*
X148155049Y-136832181D01*
X148155048Y-136832179D01*
X148030109Y-136660213D01*
X147879786Y-136509890D01*
X147707820Y-136384951D01*
X147701439Y-136381700D01*
X147699054Y-136380485D01*
X147648259Y-136332512D01*
X147631463Y-136264692D01*
X147653999Y-136198556D01*
X147699054Y-136159515D01*
X147707816Y-136155051D01*
X147729789Y-136139086D01*
X147879786Y-136030109D01*
X147879788Y-136030106D01*
X147879792Y-136030104D01*
X148030104Y-135879792D01*
X148030106Y-135879788D01*
X148030109Y-135879786D01*
X148155048Y-135707820D01*
X148155047Y-135707820D01*
X148155051Y-135707816D01*
X148251557Y-135518412D01*
X148317246Y-135316243D01*
X148350500Y-135106287D01*
X148350500Y-134893713D01*
X148317246Y-134683757D01*
X148251557Y-134481588D01*
X148155051Y-134292184D01*
X148155049Y-134292181D01*
X148155048Y-134292179D01*
X148030109Y-134120213D01*
X147879786Y-133969890D01*
X147707820Y-133844951D01*
X147707115Y-133844591D01*
X147699054Y-133840485D01*
X147648259Y-133792512D01*
X147631463Y-133724692D01*
X147653999Y-133658556D01*
X147699054Y-133619515D01*
X147707816Y-133615051D01*
X147729789Y-133599086D01*
X147879786Y-133490109D01*
X147879788Y-133490106D01*
X147879792Y-133490104D01*
X148030104Y-133339792D01*
X148030106Y-133339788D01*
X148030109Y-133339786D01*
X148155048Y-133167820D01*
X148155047Y-133167820D01*
X148155051Y-133167816D01*
X148251557Y-132978412D01*
X148317246Y-132776243D01*
X148350500Y-132566287D01*
X148350500Y-132353713D01*
X148317246Y-132143757D01*
X148251557Y-131941588D01*
X148155051Y-131752184D01*
X148155049Y-131752181D01*
X148155048Y-131752179D01*
X148030109Y-131580213D01*
X147879786Y-131429890D01*
X147707820Y-131304951D01*
X147518414Y-131208444D01*
X147518413Y-131208443D01*
X147518412Y-131208443D01*
X147316243Y-131142754D01*
X147316241Y-131142753D01*
X147316240Y-131142753D01*
X147154957Y-131117208D01*
X147106287Y-131109500D01*
X146893713Y-131109500D01*
X146845042Y-131117208D01*
X146683760Y-131142753D01*
X146481585Y-131208444D01*
X146292179Y-131304951D01*
X146120213Y-131429890D01*
X145969892Y-131580211D01*
X145901573Y-131674247D01*
X145876770Y-131708385D01*
X145821442Y-131751051D01*
X145776453Y-131759500D01*
X131926941Y-131759500D01*
X131859902Y-131739815D01*
X131839260Y-131723181D01*
X131828292Y-131712213D01*
X131828288Y-131712210D01*
X131697185Y-131624609D01*
X131697172Y-131624602D01*
X131551501Y-131564264D01*
X131551489Y-131564261D01*
X131396845Y-131533500D01*
X131396842Y-131533500D01*
X131239158Y-131533500D01*
X131239155Y-131533500D01*
X131084510Y-131564261D01*
X131084498Y-131564264D01*
X130938827Y-131624602D01*
X130938814Y-131624609D01*
X130807711Y-131712210D01*
X130807707Y-131712213D01*
X130696213Y-131823707D01*
X130696210Y-131823711D01*
X130608609Y-131954814D01*
X130608602Y-131954827D01*
X130548264Y-132100498D01*
X130548261Y-132100510D01*
X130517500Y-132255153D01*
X130517500Y-132412846D01*
X130548261Y-132567489D01*
X130548264Y-132567501D01*
X130608602Y-132713172D01*
X130608609Y-132713185D01*
X130696210Y-132844288D01*
X130696213Y-132844292D01*
X130807707Y-132955786D01*
X130807711Y-132955789D01*
X130938814Y-133043390D01*
X130938827Y-133043397D01*
X131066203Y-133096157D01*
X131084503Y-133103737D01*
X131239153Y-133134499D01*
X131239156Y-133134500D01*
X131239158Y-133134500D01*
X131360085Y-133134500D01*
X131384277Y-133136883D01*
X131503003Y-133160500D01*
X131503006Y-133160500D01*
X131503007Y-133160500D01*
X145776453Y-133160500D01*
X145843492Y-133180185D01*
X145876769Y-133211614D01*
X145886858Y-133225499D01*
X145969892Y-133339788D01*
X146120213Y-133490109D01*
X146292182Y-133615050D01*
X146300946Y-133619516D01*
X146351742Y-133667491D01*
X146368536Y-133735312D01*
X146345998Y-133801447D01*
X146300946Y-133840484D01*
X146292182Y-133844949D01*
X146120213Y-133969890D01*
X145969890Y-134120213D01*
X145844951Y-134292179D01*
X145748444Y-134481585D01*
X145682753Y-134683760D01*
X145649500Y-134893713D01*
X145649500Y-135106286D01*
X145679928Y-135298405D01*
X145682754Y-135316243D01*
X145748044Y-135517185D01*
X145748444Y-135518414D01*
X145844951Y-135707820D01*
X145969890Y-135879786D01*
X146120213Y-136030109D01*
X146292182Y-136155050D01*
X146300946Y-136159516D01*
X146351742Y-136207491D01*
X146368536Y-136275312D01*
X146345998Y-136341447D01*
X146300946Y-136380484D01*
X146292182Y-136384949D01*
X146120213Y-136509890D01*
X145969890Y-136660213D01*
X145844951Y-136832179D01*
X145748444Y-137021585D01*
X145682753Y-137223760D01*
X145663302Y-137346571D01*
X145649500Y-137433713D01*
X145649500Y-137646287D01*
X145654021Y-137674829D01*
X145681313Y-137847150D01*
X145682754Y-137856243D01*
X145739233Y-138030068D01*
X145748444Y-138058414D01*
X145844951Y-138247820D01*
X145969890Y-138419786D01*
X146083430Y-138533326D01*
X146116915Y-138594649D01*
X146111931Y-138664341D01*
X146070059Y-138720274D01*
X146039083Y-138737189D01*
X145907669Y-138786203D01*
X145907664Y-138786206D01*
X145792455Y-138872452D01*
X145792452Y-138872455D01*
X145706206Y-138987664D01*
X145706202Y-138987671D01*
X145655908Y-139122517D01*
X145651856Y-139160210D01*
X145649501Y-139182123D01*
X145649500Y-139182135D01*
X145649501Y-140981193D01*
X145647956Y-140981193D01*
X145633233Y-141043255D01*
X145582911Y-141091726D01*
X145525533Y-141105800D01*
X142066850Y-141105800D01*
X142033657Y-141096053D01*
X141999962Y-141086213D01*
X141999874Y-141086133D01*
X141999811Y-141086115D01*
X141973255Y-141063139D01*
X141968597Y-141057780D01*
X141967712Y-141056344D01*
X141964945Y-141053577D01*
X141962105Y-141050309D01*
X141949278Y-141022330D01*
X141934534Y-140995328D01*
X141933809Y-140988587D01*
X141932988Y-140986796D01*
X141933346Y-140984279D01*
X141931700Y-140968970D01*
X141931700Y-139949428D01*
X141931699Y-139949424D01*
X141915407Y-139867516D01*
X141897337Y-139776671D01*
X141857999Y-139681700D01*
X141855016Y-139674498D01*
X141829932Y-139613939D01*
X141732071Y-139467481D01*
X141732068Y-139467477D01*
X140701641Y-138437052D01*
X140701638Y-138437048D01*
X140701638Y-138437049D01*
X140694571Y-138429982D01*
X140694571Y-138429981D01*
X140570019Y-138305429D01*
X140492755Y-138253803D01*
X140492742Y-138253794D01*
X140423567Y-138207571D01*
X140423558Y-138207566D01*
X140285646Y-138150442D01*
X140285641Y-138150441D01*
X140276941Y-138146837D01*
X140260829Y-138140163D01*
X140174450Y-138122981D01*
X140171745Y-138122443D01*
X140171729Y-138122439D01*
X140088076Y-138105800D01*
X140088072Y-138105800D01*
X140088071Y-138105800D01*
X136911929Y-138105800D01*
X136911924Y-138105800D01*
X136739177Y-138140161D01*
X136739167Y-138140164D01*
X136723058Y-138146837D01*
X136576440Y-138207567D01*
X136576431Y-138207572D01*
X136429981Y-138305428D01*
X136429977Y-138305431D01*
X133679930Y-141055481D01*
X133618607Y-141088966D01*
X133592249Y-141091800D01*
X132499927Y-141091800D01*
X132467624Y-141098225D01*
X132441524Y-141103417D01*
X132417334Y-141105800D01*
X120911924Y-141105800D01*
X120809555Y-141126163D01*
X120753170Y-141137378D01*
X120739170Y-141140163D01*
X120576439Y-141207568D01*
X120576430Y-141207573D01*
X120429982Y-141305427D01*
X120394695Y-141340715D01*
X120305429Y-141429981D01*
X120305426Y-141429984D01*
X119571984Y-142163426D01*
X119571981Y-142163429D01*
X119509704Y-142225706D01*
X119447427Y-142287982D01*
X119349567Y-142434439D01*
X119301905Y-142549505D01*
X119301905Y-142549507D01*
X119293409Y-142570019D01*
X119282163Y-142597171D01*
X119282161Y-142597174D01*
X119247800Y-142769924D01*
X119247800Y-143122531D01*
X119228115Y-143189570D01*
X119188899Y-143228068D01*
X119165848Y-143242286D01*
X119165844Y-143242289D01*
X119041789Y-143366344D01*
X119041786Y-143366348D01*
X118949687Y-143515662D01*
X118949686Y-143515664D01*
X118894501Y-143682203D01*
X118894500Y-143682205D01*
X118885082Y-143774402D01*
X118858686Y-143839094D01*
X118801505Y-143879245D01*
X118761724Y-143885800D01*
X109133752Y-143885800D01*
X109066713Y-143866115D01*
X109046071Y-143849481D01*
X105832519Y-140635929D01*
X105799034Y-140574606D01*
X105796200Y-140548248D01*
X105796200Y-137581751D01*
X105815885Y-137514712D01*
X105832519Y-137494070D01*
X106908570Y-136418019D01*
X106969893Y-136384534D01*
X106996251Y-136381700D01*
X107776012Y-136381700D01*
X107815016Y-136387994D01*
X107935292Y-136427849D01*
X108034655Y-136438000D01*
X108092547Y-136437999D01*
X108159586Y-136457682D01*
X108180229Y-136474318D01*
X109052477Y-137346568D01*
X109052481Y-137346571D01*
X109198938Y-137444431D01*
X109294265Y-137483916D01*
X109361671Y-137511837D01*
X109534424Y-137546199D01*
X109534428Y-137546200D01*
X109534429Y-137546200D01*
X109710572Y-137546200D01*
X110781969Y-137546200D01*
X110849008Y-137565885D01*
X110869650Y-137582518D01*
X110968752Y-137681620D01*
X111002236Y-137742941D01*
X110997252Y-137812633D01*
X110955381Y-137868567D01*
X110889917Y-137892984D01*
X110881070Y-137893300D01*
X109139988Y-137893300D01*
X109128735Y-137891484D01*
X109123859Y-137892247D01*
X109118333Y-137889805D01*
X109100984Y-137887006D01*
X108980709Y-137847151D01*
X108881346Y-137837000D01*
X108034662Y-137837000D01*
X108034644Y-137837001D01*
X107935292Y-137847150D01*
X107935289Y-137847151D01*
X107774305Y-137900496D01*
X107774294Y-137900501D01*
X107629959Y-137989529D01*
X107629955Y-137989532D01*
X107510032Y-138109455D01*
X107510029Y-138109459D01*
X107421001Y-138253794D01*
X107420998Y-138253800D01*
X107420997Y-138253803D01*
X107394206Y-138334653D01*
X107367651Y-138414790D01*
X107357500Y-138514147D01*
X107357500Y-139060837D01*
X107357501Y-139060855D01*
X107367650Y-139160207D01*
X107367651Y-139160210D01*
X107420996Y-139321194D01*
X107421001Y-139321205D01*
X107510029Y-139465540D01*
X107510032Y-139465544D01*
X107629955Y-139585467D01*
X107629959Y-139585470D01*
X107774294Y-139674498D01*
X107774297Y-139674499D01*
X107774303Y-139674503D01*
X107935292Y-139727849D01*
X108034655Y-139738000D01*
X108881344Y-139737999D01*
X108881352Y-139737998D01*
X108881355Y-139737998D01*
X108935760Y-139732440D01*
X108980708Y-139727849D01*
X109100984Y-139687994D01*
X109139988Y-139681700D01*
X113776573Y-139681700D01*
X113776573Y-139681699D01*
X113903579Y-139656437D01*
X113949329Y-139647337D01*
X113996992Y-139627594D01*
X114112063Y-139579931D01*
X114185291Y-139531000D01*
X114258519Y-139482071D01*
X114383071Y-139357519D01*
X114383071Y-139357517D01*
X114393279Y-139347310D01*
X114393280Y-139347307D01*
X115102819Y-138637769D01*
X115164142Y-138604285D01*
X115233834Y-138609269D01*
X115289767Y-138651141D01*
X115314184Y-138716605D01*
X115314500Y-138725451D01*
X115314500Y-139885001D01*
X115314501Y-139885018D01*
X115325000Y-139987796D01*
X115325001Y-139987799D01*
X115380185Y-140154331D01*
X115380187Y-140154336D01*
X115393204Y-140175440D01*
X115472288Y-140303656D01*
X115596344Y-140427712D01*
X115745666Y-140519814D01*
X115912203Y-140574999D01*
X116014991Y-140585500D01*
X119015008Y-140585499D01*
X119117797Y-140574999D01*
X119284334Y-140519814D01*
X119433656Y-140427712D01*
X119557712Y-140303656D01*
X119590435Y-140250602D01*
X119642383Y-140203879D01*
X119695974Y-140191700D01*
X120567073Y-140191700D01*
X120576270Y-140189870D01*
X120653450Y-140174518D01*
X120739829Y-140157337D01*
X120787492Y-140137594D01*
X120902563Y-140089931D01*
X120975791Y-140041000D01*
X121049019Y-139992071D01*
X121173571Y-139867519D01*
X121173571Y-139867517D01*
X121183779Y-139857310D01*
X121183780Y-139857307D01*
X121719271Y-139321818D01*
X121780594Y-139288333D01*
X121806952Y-139285499D01*
X122104002Y-139285499D01*
X122104008Y-139285499D01*
X122206797Y-139274999D01*
X122373334Y-139219814D01*
X122522656Y-139127712D01*
X122522662Y-139127705D01*
X122528319Y-139123234D01*
X122529161Y-139124299D01*
X122583672Y-139094534D01*
X122610030Y-139091700D01*
X123764573Y-139091700D01*
X123774422Y-139089740D01*
X123850950Y-139074518D01*
X123937329Y-139057337D01*
X123987221Y-139036671D01*
X124100063Y-138989931D01*
X124216799Y-138911929D01*
X124246519Y-138892071D01*
X124371071Y-138767519D01*
X124371071Y-138767517D01*
X124381279Y-138757310D01*
X124381280Y-138757307D01*
X125154570Y-137984020D01*
X125156207Y-137981571D01*
X125252430Y-137837563D01*
X125319837Y-137674829D01*
X125327055Y-137638541D01*
X125354200Y-137502072D01*
X125354200Y-137325929D01*
X125354200Y-133771751D01*
X125373885Y-133704712D01*
X125390519Y-133684070D01*
X126229129Y-132845460D01*
X126229138Y-132845449D01*
X126412916Y-132661672D01*
X126474237Y-132628189D01*
X126543929Y-132633173D01*
X126599862Y-132675045D01*
X126623953Y-132736751D01*
X126626001Y-132756798D01*
X126626001Y-132756799D01*
X126681185Y-132923331D01*
X126681187Y-132923336D01*
X126693721Y-132943657D01*
X126773288Y-133072656D01*
X126897344Y-133196712D01*
X127046666Y-133288814D01*
X127213203Y-133343999D01*
X127315991Y-133354500D01*
X128716008Y-133354499D01*
X128818797Y-133343999D01*
X128985334Y-133288814D01*
X129134656Y-133196712D01*
X129258712Y-133072656D01*
X129350814Y-132923334D01*
X129405999Y-132756797D01*
X129416500Y-132654009D01*
X129416499Y-130553992D01*
X129405999Y-130451203D01*
X129350814Y-130284666D01*
X129262012Y-130140694D01*
X129243573Y-130073304D01*
X129264496Y-130006641D01*
X129318138Y-129961871D01*
X129367552Y-129951600D01*
X136238673Y-129951600D01*
X136247817Y-129949780D01*
X136325050Y-129934418D01*
X136411429Y-129917237D01*
X136467045Y-129894200D01*
X136574163Y-129849831D01*
X136660066Y-129792431D01*
X136720619Y-129751971D01*
X136845171Y-129627419D01*
X136845171Y-129627417D01*
X136855379Y-129617210D01*
X136855380Y-129617207D01*
X138797771Y-127674818D01*
X138859094Y-127641333D01*
X138885452Y-127638499D01*
X140020002Y-127638499D01*
X140020008Y-127638499D01*
X140122797Y-127627999D01*
X140289334Y-127572814D01*
X140313332Y-127558011D01*
X140380723Y-127539570D01*
X140447387Y-127560491D01*
X140492158Y-127614132D01*
X140500821Y-127683463D01*
X140470625Y-127746471D01*
X140466111Y-127751230D01*
X139450787Y-128766554D01*
X139410560Y-128793434D01*
X139320821Y-128830606D01*
X139320814Y-128830609D01*
X139189711Y-128918210D01*
X139189707Y-128918213D01*
X139078213Y-129029707D01*
X139078210Y-129029711D01*
X138990609Y-129160814D01*
X138990602Y-129160827D01*
X138930264Y-129306498D01*
X138930261Y-129306510D01*
X138899500Y-129461153D01*
X138899500Y-129618846D01*
X138930261Y-129773489D01*
X138930264Y-129773501D01*
X138990602Y-129919172D01*
X138990609Y-129919185D01*
X139078210Y-130050288D01*
X139078213Y-130050292D01*
X139189707Y-130161786D01*
X139189711Y-130161789D01*
X139320814Y-130249390D01*
X139320827Y-130249397D01*
X139466498Y-130309735D01*
X139466503Y-130309737D01*
X139621153Y-130340499D01*
X139621156Y-130340500D01*
X139621158Y-130340500D01*
X139778844Y-130340500D01*
X139778845Y-130340499D01*
X139933497Y-130309737D01*
X140079179Y-130249394D01*
X140210289Y-130161789D01*
X140321789Y-130050289D01*
X140409394Y-129919179D01*
X140469737Y-129773497D01*
X140473466Y-129754744D01*
X140505849Y-129692834D01*
X140507348Y-129691307D01*
X142523837Y-127674817D01*
X142585160Y-127641333D01*
X142611518Y-127638499D01*
X144020002Y-127638499D01*
X144020008Y-127638499D01*
X144122797Y-127627999D01*
X144289334Y-127572814D01*
X144438656Y-127480712D01*
X144562712Y-127356656D01*
X144654814Y-127207334D01*
X144709999Y-127040797D01*
X144720500Y-126938009D01*
X144720499Y-125803451D01*
X144740184Y-125736413D01*
X144756816Y-125715772D01*
X144788771Y-125683819D01*
X144886631Y-125537363D01*
X144910884Y-125478810D01*
X144943735Y-125399501D01*
X144952511Y-125378312D01*
X144954037Y-125374629D01*
X144988400Y-125201871D01*
X144988400Y-118893713D01*
X145649500Y-118893713D01*
X145649500Y-119106286D01*
X145682163Y-119312516D01*
X145682754Y-119316243D01*
X145726723Y-119451566D01*
X145748444Y-119518414D01*
X145844951Y-119707820D01*
X145969890Y-119879786D01*
X146120213Y-120030109D01*
X146292182Y-120155050D01*
X146300946Y-120159516D01*
X146351742Y-120207491D01*
X146368536Y-120275312D01*
X146345998Y-120341447D01*
X146300946Y-120380484D01*
X146292182Y-120384949D01*
X146120213Y-120509890D01*
X145969890Y-120660213D01*
X145844951Y-120832179D01*
X145748444Y-121021585D01*
X145682753Y-121223760D01*
X145649500Y-121433713D01*
X145649500Y-121646286D01*
X145679548Y-121836005D01*
X145682754Y-121856243D01*
X145747456Y-122055375D01*
X145748444Y-122058414D01*
X145844951Y-122247820D01*
X145969890Y-122419786D01*
X146120213Y-122570109D01*
X146292182Y-122695050D01*
X146300946Y-122699516D01*
X146351742Y-122747491D01*
X146368536Y-122815312D01*
X146345998Y-122881447D01*
X146300946Y-122920484D01*
X146292182Y-122924949D01*
X146120213Y-123049890D01*
X145969890Y-123200213D01*
X145844951Y-123372179D01*
X145748444Y-123561585D01*
X145682753Y-123763760D01*
X145649500Y-123973713D01*
X145649500Y-124186286D01*
X145680956Y-124384896D01*
X145682754Y-124396243D01*
X145745806Y-124590297D01*
X145748444Y-124598414D01*
X145844951Y-124787820D01*
X145969890Y-124959786D01*
X146120213Y-125110109D01*
X146292179Y-125235048D01*
X146292181Y-125235049D01*
X146292184Y-125235051D01*
X146481588Y-125331557D01*
X146683757Y-125397246D01*
X146893713Y-125430500D01*
X146893714Y-125430500D01*
X147106286Y-125430500D01*
X147106287Y-125430500D01*
X147316243Y-125397246D01*
X147518412Y-125331557D01*
X147707816Y-125235051D01*
X147790221Y-125175181D01*
X147879786Y-125110109D01*
X147879788Y-125110106D01*
X147879792Y-125110104D01*
X148030104Y-124959792D01*
X148030106Y-124959788D01*
X148030109Y-124959786D01*
X148155048Y-124787820D01*
X148155047Y-124787820D01*
X148155051Y-124787816D01*
X148251557Y-124598412D01*
X148317246Y-124396243D01*
X148350500Y-124186287D01*
X148350500Y-123973713D01*
X148317246Y-123763757D01*
X148251557Y-123561588D01*
X148155051Y-123372184D01*
X148155049Y-123372181D01*
X148155048Y-123372179D01*
X148030109Y-123200213D01*
X147879786Y-123049890D01*
X147707820Y-122924951D01*
X147707115Y-122924591D01*
X147699054Y-122920485D01*
X147648259Y-122872512D01*
X147631463Y-122804692D01*
X147653999Y-122738556D01*
X147699054Y-122699515D01*
X147707816Y-122695051D01*
X147769850Y-122649981D01*
X147879786Y-122570109D01*
X147879788Y-122570106D01*
X147879792Y-122570104D01*
X148030104Y-122419792D01*
X148030106Y-122419788D01*
X148030109Y-122419786D01*
X148155048Y-122247820D01*
X148155047Y-122247820D01*
X148155051Y-122247816D01*
X148251557Y-122058412D01*
X148317246Y-121856243D01*
X148350500Y-121646287D01*
X148350500Y-121433713D01*
X148317246Y-121223757D01*
X148251557Y-121021588D01*
X148155051Y-120832184D01*
X148155049Y-120832181D01*
X148155048Y-120832179D01*
X148030109Y-120660213D01*
X147879786Y-120509890D01*
X147707820Y-120384951D01*
X147707115Y-120384591D01*
X147699054Y-120380485D01*
X147648259Y-120332512D01*
X147631463Y-120264692D01*
X147653999Y-120198556D01*
X147699054Y-120159515D01*
X147707816Y-120155051D01*
X147747833Y-120125977D01*
X147879786Y-120030109D01*
X147879788Y-120030106D01*
X147879792Y-120030104D01*
X148030104Y-119879792D01*
X148030106Y-119879788D01*
X148030109Y-119879786D01*
X148155048Y-119707820D01*
X148155047Y-119707820D01*
X148155051Y-119707816D01*
X148251557Y-119518412D01*
X148317246Y-119316243D01*
X148350500Y-119106287D01*
X148350500Y-118893713D01*
X148317246Y-118683757D01*
X148251557Y-118481588D01*
X148155051Y-118292184D01*
X148155049Y-118292181D01*
X148155048Y-118292179D01*
X148030109Y-118120213D01*
X147879786Y-117969890D01*
X147707820Y-117844951D01*
X147518414Y-117748444D01*
X147518413Y-117748443D01*
X147518412Y-117748443D01*
X147316243Y-117682754D01*
X147316241Y-117682753D01*
X147316240Y-117682753D01*
X147150091Y-117656438D01*
X147106287Y-117649500D01*
X146893713Y-117649500D01*
X146849909Y-117656438D01*
X146683760Y-117682753D01*
X146481585Y-117748444D01*
X146292179Y-117844951D01*
X146120213Y-117969890D01*
X145969890Y-118120213D01*
X145844951Y-118292179D01*
X145748444Y-118481585D01*
X145682753Y-118683760D01*
X145649500Y-118893713D01*
X144988400Y-118893713D01*
X144988400Y-117742529D01*
X144954037Y-117569771D01*
X144886630Y-117407037D01*
X144886629Y-117407036D01*
X144886626Y-117407030D01*
X144788771Y-117260581D01*
X144788768Y-117260577D01*
X144661123Y-117132932D01*
X144661092Y-117132903D01*
X144050011Y-116521822D01*
X144049991Y-116521800D01*
X143921122Y-116392931D01*
X143921118Y-116392928D01*
X143845857Y-116342640D01*
X143774663Y-116295069D01*
X143774660Y-116295067D01*
X143774659Y-116295067D01*
X143774658Y-116295066D01*
X143649627Y-116243278D01*
X143620412Y-116231177D01*
X143611929Y-116227663D01*
X143525550Y-116210481D01*
X143523473Y-116210067D01*
X143523448Y-116210062D01*
X143500308Y-116205460D01*
X143438397Y-116173075D01*
X143403822Y-116112359D01*
X143400499Y-116083843D01*
X143400499Y-116037498D01*
X143400498Y-116037481D01*
X143389999Y-115934703D01*
X143389998Y-115934700D01*
X143379621Y-115903384D01*
X143334814Y-115768166D01*
X143242712Y-115618844D01*
X143118656Y-115494788D01*
X142969334Y-115402686D01*
X142802797Y-115347501D01*
X142802795Y-115347500D01*
X142700010Y-115337000D01*
X141299998Y-115337000D01*
X141299981Y-115337001D01*
X141197203Y-115347500D01*
X141197200Y-115347501D01*
X141030668Y-115402685D01*
X141030663Y-115402687D01*
X140881342Y-115494789D01*
X140757289Y-115618842D01*
X140665187Y-115768163D01*
X140665185Y-115768168D01*
X140646541Y-115824432D01*
X140610001Y-115934703D01*
X140610001Y-115934704D01*
X140610000Y-115934704D01*
X140599500Y-116037483D01*
X140599469Y-116038105D01*
X140599424Y-116038233D01*
X140599179Y-116040632D01*
X140598605Y-116040573D01*
X140576401Y-116104057D01*
X140521338Y-116147068D01*
X140475629Y-116155800D01*
X139031030Y-116155800D01*
X138963991Y-116136115D01*
X138947608Y-116122913D01*
X138943658Y-116119790D01*
X138943656Y-116119788D01*
X138810218Y-116037483D01*
X138794336Y-116027687D01*
X138794331Y-116027685D01*
X138770632Y-116019832D01*
X138627797Y-115972501D01*
X138627795Y-115972500D01*
X138525010Y-115962000D01*
X137474998Y-115962000D01*
X137474980Y-115962001D01*
X137372203Y-115972500D01*
X137372200Y-115972501D01*
X137205668Y-116027685D01*
X137205663Y-116027687D01*
X137056342Y-116119789D01*
X136931651Y-116244481D01*
X136870328Y-116277966D01*
X136843970Y-116280800D01*
X135890612Y-116280800D01*
X135825516Y-116262339D01*
X135770806Y-116228594D01*
X135769336Y-116227687D01*
X135769331Y-116227685D01*
X135732755Y-116215565D01*
X135602797Y-116172501D01*
X135602795Y-116172500D01*
X135500010Y-116162000D01*
X134499998Y-116162000D01*
X134499980Y-116162001D01*
X134397203Y-116172500D01*
X134397200Y-116172501D01*
X134230668Y-116227685D01*
X134230663Y-116227687D01*
X134194806Y-116249804D01*
X134174483Y-116262339D01*
X134109388Y-116280800D01*
X132274424Y-116280800D01*
X132101674Y-116315161D01*
X132101671Y-116315163D01*
X132054007Y-116334905D01*
X132015650Y-116350793D01*
X131938939Y-116382567D01*
X131792481Y-116480428D01*
X131792477Y-116480431D01*
X131337180Y-116935729D01*
X131275857Y-116969214D01*
X131206165Y-116964230D01*
X131150232Y-116922358D01*
X131125815Y-116856894D01*
X131125499Y-116848048D01*
X131125499Y-116738096D01*
X131111011Y-116628036D01*
X131111009Y-116628031D01*
X131111009Y-116628028D01*
X131054279Y-116491071D01*
X130964036Y-116373464D01*
X130846429Y-116283221D01*
X130846425Y-116283219D01*
X130709472Y-116226491D01*
X130709470Y-116226490D01*
X130599401Y-116212000D01*
X130400596Y-116212000D01*
X130290531Y-116226489D01*
X130282678Y-116228594D01*
X130281802Y-116225324D01*
X130227853Y-116231067D01*
X130217477Y-116228018D01*
X130217323Y-116228595D01*
X130209470Y-116226490D01*
X130099401Y-116212000D01*
X129900596Y-116212000D01*
X129790531Y-116226489D01*
X129782678Y-116228594D01*
X129781802Y-116225324D01*
X129768422Y-116226748D01*
X129739953Y-116232653D01*
X129731682Y-116230659D01*
X129727853Y-116231067D01*
X129722751Y-116228506D01*
X129717674Y-116227282D01*
X129717323Y-116228595D01*
X129709470Y-116226490D01*
X129599401Y-116212000D01*
X129400596Y-116212000D01*
X129290531Y-116226489D01*
X129282678Y-116228594D01*
X129281802Y-116225324D01*
X129227853Y-116231067D01*
X129217477Y-116228018D01*
X129217323Y-116228595D01*
X129209470Y-116226490D01*
X129099401Y-116212000D01*
X128900596Y-116212000D01*
X128790531Y-116226489D01*
X128782678Y-116228594D01*
X128781802Y-116225324D01*
X128727853Y-116231067D01*
X128717477Y-116228018D01*
X128717323Y-116228595D01*
X128709470Y-116226490D01*
X128599401Y-116212000D01*
X128400596Y-116212000D01*
X128290531Y-116226489D01*
X128282678Y-116228594D01*
X128281802Y-116225324D01*
X128227853Y-116231067D01*
X128217477Y-116228018D01*
X128217323Y-116228595D01*
X128209470Y-116226490D01*
X128099401Y-116212000D01*
X127900596Y-116212000D01*
X127790531Y-116226489D01*
X127782678Y-116228594D01*
X127781802Y-116225324D01*
X127727853Y-116231067D01*
X127717477Y-116228018D01*
X127717323Y-116228595D01*
X127709470Y-116226490D01*
X127599401Y-116212000D01*
X127400604Y-116212000D01*
X127291724Y-116226333D01*
X127222689Y-116215565D01*
X127172439Y-116172284D01*
X127136896Y-116119091D01*
X127116018Y-116052414D01*
X127134502Y-115985034D01*
X127186481Y-115938343D01*
X127239998Y-115926200D01*
X129658073Y-115926200D01*
X129658073Y-115926199D01*
X129772772Y-115903385D01*
X129830829Y-115891837D01*
X129920966Y-115854501D01*
X129993563Y-115824431D01*
X130077768Y-115768166D01*
X130140019Y-115726571D01*
X130264571Y-115602019D01*
X130264572Y-115602016D01*
X130636072Y-115230517D01*
X130697394Y-115197034D01*
X130723752Y-115194200D01*
X140042073Y-115194200D01*
X140052089Y-115192207D01*
X140128450Y-115177018D01*
X140214829Y-115159837D01*
X140273779Y-115135419D01*
X140377563Y-115092431D01*
X140450791Y-115043500D01*
X140524019Y-114994571D01*
X140648571Y-114870019D01*
X140648571Y-114870017D01*
X140658779Y-114859810D01*
X140658780Y-114859807D01*
X141732070Y-113786520D01*
X141769849Y-113729981D01*
X141829930Y-113640063D01*
X141897337Y-113477329D01*
X141918997Y-113368437D01*
X141931700Y-113304572D01*
X141931700Y-113128429D01*
X141931700Y-113031030D01*
X141951385Y-112963991D01*
X141964586Y-112947608D01*
X141967705Y-112943662D01*
X141967712Y-112943656D01*
X142059814Y-112794334D01*
X142114999Y-112627797D01*
X142125500Y-112525009D01*
X142125499Y-112504652D01*
X142145181Y-112437615D01*
X142161809Y-112416978D01*
X142694571Y-111884219D01*
X142792431Y-111737762D01*
X142848582Y-111602200D01*
X142859837Y-111575029D01*
X142894200Y-111402271D01*
X142894200Y-110458151D01*
X142913885Y-110391112D01*
X142966689Y-110345357D01*
X143035847Y-110335413D01*
X143099403Y-110364438D01*
X143105881Y-110370470D01*
X144809977Y-112074568D01*
X144809981Y-112074571D01*
X144956437Y-112172431D01*
X145061450Y-112215928D01*
X145119171Y-112239837D01*
X145291924Y-112274199D01*
X145291928Y-112274200D01*
X145291929Y-112274200D01*
X145468072Y-112274200D01*
X145546211Y-112274200D01*
X145613250Y-112293885D01*
X145659005Y-112346689D01*
X145662393Y-112354867D01*
X145706202Y-112472328D01*
X145706206Y-112472335D01*
X145792452Y-112587544D01*
X145792455Y-112587547D01*
X145907664Y-112673793D01*
X145907671Y-112673797D01*
X146042517Y-112724091D01*
X146042516Y-112724091D01*
X146049444Y-112724835D01*
X146102127Y-112730500D01*
X147897872Y-112730499D01*
X147957483Y-112724091D01*
X148092331Y-112673796D01*
X148207546Y-112587546D01*
X148293796Y-112472331D01*
X148344091Y-112337483D01*
X148350500Y-112277873D01*
X148350499Y-110482128D01*
X148344091Y-110422517D01*
X148335541Y-110399594D01*
X148293797Y-110287671D01*
X148293793Y-110287664D01*
X148207547Y-110172455D01*
X148207544Y-110172452D01*
X148092335Y-110086206D01*
X148092328Y-110086202D01*
X147957482Y-110035908D01*
X147957483Y-110035908D01*
X147897883Y-110029501D01*
X147897881Y-110029500D01*
X147897873Y-110029500D01*
X147897864Y-110029500D01*
X146102129Y-110029500D01*
X146102123Y-110029501D01*
X146042516Y-110035908D01*
X145907671Y-110086202D01*
X145907664Y-110086206D01*
X145792455Y-110172452D01*
X145792452Y-110172455D01*
X145726056Y-110261149D01*
X145670122Y-110303020D01*
X145600431Y-110308004D01*
X145539109Y-110274519D01*
X143786818Y-108522228D01*
X143753333Y-108460905D01*
X143750499Y-108434547D01*
X143750499Y-107299998D01*
X143750498Y-107299981D01*
X143739999Y-107197203D01*
X143739998Y-107197200D01*
X143732648Y-107175019D01*
X143684814Y-107030666D01*
X143592712Y-106881344D01*
X143468656Y-106757288D01*
X143319334Y-106665186D01*
X143152797Y-106610001D01*
X143152795Y-106610000D01*
X143050010Y-106599500D01*
X140949998Y-106599500D01*
X140949981Y-106599501D01*
X140847203Y-106610000D01*
X140847200Y-106610001D01*
X140680668Y-106665185D01*
X140680663Y-106665187D01*
X140531342Y-106757289D01*
X140407289Y-106881342D01*
X140315187Y-107030663D01*
X140315186Y-107030666D01*
X140260001Y-107197203D01*
X140260001Y-107197204D01*
X140260000Y-107197204D01*
X140249500Y-107299983D01*
X140249500Y-108700001D01*
X140249501Y-108700018D01*
X140260000Y-108802796D01*
X140260001Y-108802799D01*
X140305997Y-108941603D01*
X140315186Y-108969334D01*
X140407288Y-109118656D01*
X140531344Y-109242712D01*
X140680666Y-109334814D01*
X140847203Y-109389999D01*
X140949991Y-109400500D01*
X140981798Y-109400499D01*
X141048836Y-109420182D01*
X141094593Y-109472984D01*
X141105800Y-109524499D01*
X141105800Y-110650500D01*
X141086115Y-110717539D01*
X141033311Y-110763294D01*
X140981800Y-110774500D01*
X140649999Y-110774500D01*
X140649980Y-110774501D01*
X140547203Y-110785000D01*
X140547200Y-110785001D01*
X140380668Y-110840185D01*
X140380663Y-110840187D01*
X140231342Y-110932289D01*
X140107289Y-111056342D01*
X140015187Y-111205663D01*
X140015185Y-111205668D01*
X139991210Y-111278020D01*
X139960001Y-111372203D01*
X139960001Y-111372204D01*
X139960000Y-111372204D01*
X139949500Y-111474983D01*
X139949500Y-112525001D01*
X139949501Y-112525019D01*
X139960000Y-112627796D01*
X139960001Y-112627797D01*
X140015185Y-112794331D01*
X140015190Y-112794342D01*
X140032341Y-112822147D01*
X140050782Y-112889539D01*
X140029860Y-112956203D01*
X140014484Y-112974925D01*
X139619930Y-113369481D01*
X139558607Y-113402966D01*
X139532249Y-113405800D01*
X131066200Y-113405800D01*
X130999161Y-113386115D01*
X130953406Y-113333311D01*
X130942200Y-113281800D01*
X130942200Y-111991608D01*
X130961885Y-111924569D01*
X130978514Y-111903931D01*
X131078581Y-111803865D01*
X131162244Y-111662398D01*
X131208098Y-111504569D01*
X131211000Y-111467694D01*
X131211000Y-111036306D01*
X131208098Y-110999431D01*
X131199385Y-110969442D01*
X131162245Y-110841606D01*
X131162244Y-110841603D01*
X131162244Y-110841602D01*
X131078581Y-110700135D01*
X131078579Y-110700133D01*
X131078576Y-110700129D01*
X130962370Y-110583923D01*
X130962362Y-110583917D01*
X130820896Y-110500255D01*
X130820893Y-110500254D01*
X130663073Y-110454402D01*
X130663067Y-110454401D01*
X130626201Y-110451500D01*
X130626194Y-110451500D01*
X130476745Y-110451500D01*
X130429292Y-110442061D01*
X130418918Y-110437764D01*
X130308829Y-110392163D01*
X130308821Y-110392161D01*
X130136075Y-110357800D01*
X130136071Y-110357800D01*
X129959929Y-110357800D01*
X129959924Y-110357800D01*
X129787178Y-110392161D01*
X129787170Y-110392163D01*
X129708792Y-110424629D01*
X129677082Y-110437764D01*
X129666708Y-110442061D01*
X129619255Y-110451500D01*
X129469798Y-110451500D01*
X129432932Y-110454401D01*
X129432926Y-110454402D01*
X129275106Y-110500254D01*
X129275103Y-110500255D01*
X129126920Y-110587890D01*
X129125845Y-110586073D01*
X129070948Y-110607620D01*
X129002432Y-110593931D01*
X128952194Y-110545373D01*
X128936000Y-110484104D01*
X128936000Y-110086313D01*
X128935999Y-110086298D01*
X128935991Y-110086202D01*
X128933098Y-110049431D01*
X128929169Y-110035909D01*
X128887245Y-109891606D01*
X128887244Y-109891602D01*
X128886371Y-109890126D01*
X128886038Y-109888816D01*
X128884146Y-109884443D01*
X128884851Y-109884137D01*
X128869185Y-109822403D01*
X128884639Y-109769770D01*
X128884146Y-109769557D01*
X128885876Y-109765558D01*
X128886371Y-109763874D01*
X128887244Y-109762398D01*
X128933098Y-109604569D01*
X128936000Y-109567694D01*
X128936000Y-109136306D01*
X128933098Y-109099431D01*
X128887244Y-108941602D01*
X128803581Y-108800135D01*
X128803579Y-108800133D01*
X128803576Y-108800129D01*
X128703519Y-108700072D01*
X128670034Y-108638749D01*
X128667200Y-108612391D01*
X128667200Y-105539930D01*
X128667200Y-105539929D01*
X128661304Y-105510289D01*
X128632837Y-105367171D01*
X128565430Y-105204437D01*
X128531716Y-105153981D01*
X128531716Y-105153980D01*
X128467574Y-105057985D01*
X128467568Y-105057977D01*
X128339923Y-104930332D01*
X128339892Y-104930303D01*
X127842318Y-104432729D01*
X127827614Y-104405801D01*
X127811022Y-104379983D01*
X127810130Y-104373782D01*
X127808833Y-104371406D01*
X127805999Y-104345048D01*
X127805999Y-104299983D01*
X129799500Y-104299983D01*
X129799500Y-105700001D01*
X129799501Y-105700018D01*
X129810000Y-105802796D01*
X129810001Y-105802799D01*
X129865185Y-105969331D01*
X129865187Y-105969336D01*
X129875113Y-105985429D01*
X129957288Y-106118656D01*
X130081344Y-106242712D01*
X130230666Y-106334814D01*
X130397203Y-106389999D01*
X130499991Y-106400500D01*
X133500008Y-106400499D01*
X133602797Y-106389999D01*
X133769334Y-106334814D01*
X133918656Y-106242712D01*
X134042712Y-106118656D01*
X134134814Y-105969334D01*
X134189999Y-105802797D01*
X134200500Y-105700009D01*
X134200499Y-104299992D01*
X134189999Y-104197203D01*
X134134814Y-104030666D01*
X134042712Y-103881344D01*
X133918656Y-103757288D01*
X133812512Y-103691818D01*
X133769336Y-103665187D01*
X133769331Y-103665185D01*
X133739491Y-103655297D01*
X133602797Y-103610001D01*
X133602795Y-103610000D01*
X133500010Y-103599500D01*
X130499998Y-103599500D01*
X130499981Y-103599501D01*
X130397203Y-103610000D01*
X130397200Y-103610001D01*
X130230668Y-103665185D01*
X130230663Y-103665187D01*
X130081342Y-103757289D01*
X129957289Y-103881342D01*
X129865187Y-104030663D01*
X129865186Y-104030666D01*
X129810001Y-104197203D01*
X129810001Y-104197204D01*
X129810000Y-104197204D01*
X129799500Y-104299983D01*
X127805999Y-104299983D01*
X127805999Y-104147998D01*
X127805998Y-104147981D01*
X127795499Y-104045203D01*
X127795498Y-104045200D01*
X127740314Y-103878666D01*
X127705659Y-103822481D01*
X127687200Y-103757387D01*
X127687200Y-103543928D01*
X127687199Y-103543924D01*
X127652837Y-103371171D01*
X127613454Y-103276092D01*
X127604042Y-103253368D01*
X127585434Y-103208444D01*
X127585427Y-103208431D01*
X127487571Y-103061981D01*
X127487568Y-103061977D01*
X126732641Y-102307052D01*
X126732638Y-102307048D01*
X126732638Y-102307049D01*
X126725571Y-102299982D01*
X126725571Y-102299981D01*
X126601019Y-102175429D01*
X126601018Y-102175428D01*
X126601017Y-102175427D01*
X126515945Y-102118584D01*
X126515944Y-102118583D01*
X126509496Y-102114275D01*
X126454563Y-102077569D01*
X126339492Y-102029905D01*
X126328590Y-102025389D01*
X126291830Y-102010163D01*
X126291826Y-102010162D01*
X126205450Y-101992981D01*
X126119076Y-101975800D01*
X126119072Y-101975800D01*
X126119071Y-101975800D01*
X118529929Y-101975800D01*
X118529924Y-101975800D01*
X118357179Y-102010161D01*
X118357174Y-102010162D01*
X118357171Y-102010163D01*
X118313599Y-102028211D01*
X118289763Y-102038084D01*
X118194440Y-102077567D01*
X118047981Y-102175428D01*
X118047977Y-102175431D01*
X116400928Y-103822482D01*
X115857983Y-104365427D01*
X115857981Y-104365429D01*
X115817609Y-104405801D01*
X115733429Y-104489980D01*
X115709981Y-104525072D01*
X115686692Y-104559928D01*
X115635571Y-104636432D01*
X115635568Y-104636438D01*
X115587905Y-104751505D01*
X115587905Y-104751507D01*
X115568163Y-104799171D01*
X115568161Y-104799174D01*
X115533800Y-104971924D01*
X115533800Y-108196075D01*
X115568161Y-108368821D01*
X115569931Y-108374656D01*
X115569306Y-108374845D01*
X115577500Y-108416035D01*
X115577500Y-108487594D01*
X115583685Y-108555657D01*
X115583686Y-108555662D01*
X115583687Y-108555664D01*
X115632485Y-108712263D01*
X115632488Y-108712272D01*
X115717348Y-108852648D01*
X115717351Y-108852652D01*
X115833347Y-108968648D01*
X115833351Y-108968651D01*
X115973727Y-109053511D01*
X115973730Y-109053512D01*
X116130343Y-109102315D01*
X116198406Y-109108500D01*
X116198409Y-109108500D01*
X116553500Y-109108500D01*
X116620539Y-109128185D01*
X116666294Y-109180989D01*
X116677500Y-109232500D01*
X116677500Y-109583500D01*
X116657815Y-109650539D01*
X116605011Y-109696294D01*
X116553500Y-109707500D01*
X116198406Y-109707500D01*
X116130343Y-109713685D01*
X116130341Y-109713685D01*
X116130338Y-109713686D01*
X115973731Y-109762487D01*
X115962036Y-109769557D01*
X115918430Y-109795917D01*
X115854282Y-109813800D01*
X111453924Y-109813800D01*
X111313216Y-109841789D01*
X111281171Y-109848163D01*
X111281170Y-109848163D01*
X111118439Y-109915568D01*
X111118430Y-109915573D01*
X110971982Y-110013427D01*
X110935984Y-110049426D01*
X110847429Y-110137981D01*
X110847426Y-110137984D01*
X110286984Y-110698426D01*
X110286981Y-110698429D01*
X110224706Y-110760704D01*
X110162431Y-110822978D01*
X110138248Y-110859171D01*
X110138247Y-110859170D01*
X110064570Y-110969435D01*
X110064566Y-110969442D01*
X110024059Y-111067237D01*
X109997164Y-111132166D01*
X109997163Y-111132171D01*
X109990846Y-111163929D01*
X109968152Y-111278020D01*
X109968152Y-111278021D01*
X109962800Y-111304926D01*
X109962800Y-111796509D01*
X109943115Y-111863548D01*
X109903900Y-111902046D01*
X109878954Y-111917433D01*
X109759029Y-112037359D01*
X109670001Y-112181694D01*
X109669996Y-112181705D01*
X109616651Y-112342690D01*
X109606500Y-112442047D01*
X109606500Y-116688737D01*
X109606501Y-116688755D01*
X109616650Y-116788107D01*
X109616651Y-116788110D01*
X109669996Y-116949094D01*
X109670001Y-116949105D01*
X109759029Y-117093440D01*
X109759032Y-117093444D01*
X109878955Y-117213367D01*
X109878959Y-117213370D01*
X110023294Y-117302398D01*
X110023297Y-117302399D01*
X110023303Y-117302403D01*
X110184292Y-117355749D01*
X110283655Y-117365900D01*
X111430344Y-117365899D01*
X111430352Y-117365898D01*
X111430355Y-117365898D01*
X111484760Y-117360340D01*
X111529708Y-117355749D01*
X111690697Y-117302403D01*
X111835044Y-117213368D01*
X111954968Y-117093444D01*
X112044003Y-116949097D01*
X112097349Y-116788108D01*
X112107500Y-116688745D01*
X112107499Y-112442056D01*
X112107045Y-112437615D01*
X112097349Y-112342692D01*
X112097348Y-112342689D01*
X112081176Y-112293885D01*
X112044003Y-112181703D01*
X112043999Y-112181697D01*
X112043998Y-112181694D01*
X111954970Y-112037359D01*
X111954969Y-112037358D01*
X111954968Y-112037356D01*
X111835044Y-111917432D01*
X111835043Y-111917431D01*
X111835041Y-111917430D01*
X111821382Y-111909004D01*
X111805832Y-111891715D01*
X111787214Y-111877778D01*
X111782904Y-111866222D01*
X111774659Y-111857055D01*
X111770924Y-111834102D01*
X111762798Y-111812313D01*
X111765419Y-111800263D01*
X111763439Y-111788092D01*
X111772706Y-111766765D01*
X111777650Y-111744040D01*
X111789404Y-111728337D01*
X111791285Y-111724011D01*
X111798779Y-111715809D01*
X111876072Y-111638516D01*
X111937394Y-111605034D01*
X111963751Y-111602200D01*
X113957929Y-111602200D01*
X114166286Y-111602200D01*
X114233325Y-111621885D01*
X114279080Y-111674689D01*
X114289024Y-111743847D01*
X114259999Y-111807403D01*
X114242265Y-111823049D01*
X114242689Y-111823565D01*
X114237982Y-111827427D01*
X114201862Y-111863548D01*
X114113429Y-111951981D01*
X114113426Y-111951984D01*
X112967984Y-113097426D01*
X112967981Y-113097429D01*
X112905704Y-113159705D01*
X112843428Y-113221981D01*
X112822322Y-113253567D01*
X112822323Y-113253568D01*
X112745570Y-113368435D01*
X112745568Y-113368439D01*
X112715859Y-113440164D01*
X112678164Y-113531166D01*
X112678161Y-113531178D01*
X112643800Y-113703924D01*
X112643800Y-117434248D01*
X112624115Y-117501287D01*
X112607481Y-117521929D01*
X111443983Y-118685427D01*
X111443981Y-118685429D01*
X111401177Y-118728233D01*
X111319429Y-118809980D01*
X111307724Y-118827499D01*
X111272690Y-118879931D01*
X111221571Y-118956433D01*
X111221568Y-118956439D01*
X111189764Y-119033222D01*
X111166656Y-119089011D01*
X111162709Y-119098541D01*
X111154163Y-119119172D01*
X111119819Y-119291835D01*
X111119800Y-119291929D01*
X111119800Y-119292120D01*
X111119800Y-120482248D01*
X111112002Y-120508804D01*
X111107487Y-120536119D01*
X111101509Y-120544537D01*
X111100115Y-120549287D01*
X111087786Y-120565402D01*
X111085695Y-120567714D01*
X111018429Y-120634981D01*
X111005166Y-120654831D01*
X111000135Y-120662360D01*
X111000128Y-120662368D01*
X110920570Y-120781435D01*
X110920566Y-120781442D01*
X110899204Y-120833016D01*
X110899201Y-120833024D01*
X110897140Y-120838001D01*
X110853163Y-120944171D01*
X110834494Y-121038027D01*
X110832449Y-121044507D01*
X110816606Y-121068100D01*
X110803433Y-121093285D01*
X110797381Y-121096730D01*
X110793499Y-121102513D01*
X110767412Y-121113796D01*
X110742717Y-121127859D01*
X110735762Y-121127486D01*
X110729371Y-121130251D01*
X110701328Y-121125640D01*
X110672947Y-121124120D01*
X110667298Y-121120046D01*
X110660427Y-121118917D01*
X110639328Y-121099877D01*
X110616275Y-121083254D01*
X110613725Y-121076773D01*
X110608555Y-121072108D01*
X110601098Y-121044680D01*
X110590694Y-121018236D01*
X110590200Y-121007183D01*
X110590200Y-120607928D01*
X110590199Y-120607924D01*
X110581160Y-120562480D01*
X110555837Y-120435171D01*
X110518554Y-120345163D01*
X110488431Y-120272438D01*
X110488429Y-120272436D01*
X110488429Y-120272434D01*
X110390571Y-120125981D01*
X110390568Y-120125977D01*
X107213776Y-116949186D01*
X107180291Y-116887863D01*
X107183751Y-116822502D01*
X107195149Y-116788108D01*
X107205300Y-116688745D01*
X107205299Y-112442056D01*
X107204845Y-112437615D01*
X107195149Y-112342692D01*
X107195148Y-112342689D01*
X107178976Y-112293885D01*
X107141803Y-112181703D01*
X107141799Y-112181697D01*
X107141798Y-112181694D01*
X107052770Y-112037359D01*
X107052767Y-112037355D01*
X106932844Y-111917432D01*
X106932840Y-111917429D01*
X106788505Y-111828401D01*
X106788499Y-111828398D01*
X106788497Y-111828397D01*
X106772358Y-111823049D01*
X106627509Y-111775051D01*
X106528146Y-111764900D01*
X105381462Y-111764900D01*
X105381444Y-111764901D01*
X105282092Y-111775050D01*
X105282089Y-111775051D01*
X105121105Y-111828396D01*
X105121094Y-111828401D01*
X104976759Y-111917429D01*
X104976755Y-111917432D01*
X104856832Y-112037355D01*
X104856829Y-112037359D01*
X104767801Y-112181694D01*
X104767796Y-112181705D01*
X104714451Y-112342690D01*
X104704300Y-112442047D01*
X104704300Y-116688737D01*
X104704301Y-116688755D01*
X104714450Y-116788107D01*
X104714451Y-116788110D01*
X104767796Y-116949094D01*
X104767801Y-116949105D01*
X104856829Y-117093440D01*
X104856832Y-117093444D01*
X104976756Y-117213368D01*
X105100149Y-117289478D01*
X105146871Y-117341424D01*
X105149611Y-117347563D01*
X105162366Y-117378358D01*
X105162367Y-117378359D01*
X105162369Y-117378363D01*
X105187902Y-117416575D01*
X105260227Y-117524817D01*
X105260228Y-117524818D01*
X105260229Y-117524819D01*
X105384781Y-117649371D01*
X105384782Y-117649371D01*
X105391849Y-117656438D01*
X105391848Y-117656438D01*
X105391852Y-117656441D01*
X108765481Y-121030070D01*
X108798966Y-121091393D01*
X108801800Y-121117751D01*
X108801800Y-122427500D01*
X108782115Y-122494539D01*
X108729311Y-122540294D01*
X108677804Y-122551500D01*
X108646000Y-122551500D01*
X108645980Y-122551501D01*
X108543203Y-122562000D01*
X108543200Y-122562001D01*
X108376668Y-122617185D01*
X108376663Y-122617187D01*
X108227342Y-122709289D01*
X108103289Y-122833342D01*
X108011187Y-122982663D01*
X108011185Y-122982668D01*
X107994743Y-123032288D01*
X107956001Y-123149203D01*
X107956001Y-123149204D01*
X107956000Y-123149204D01*
X107945500Y-123251983D01*
X107945500Y-124652001D01*
X107945501Y-124652018D01*
X107956000Y-124754796D01*
X107956001Y-124754799D01*
X108005172Y-124903185D01*
X108011186Y-124921334D01*
X108103288Y-125070656D01*
X108227344Y-125194712D01*
X108376666Y-125286814D01*
X108543203Y-125341999D01*
X108645991Y-125352500D01*
X110694800Y-125352499D01*
X110761839Y-125372184D01*
X110807594Y-125424987D01*
X110818800Y-125476499D01*
X110818800Y-135633800D01*
X110799115Y-135700839D01*
X110746311Y-135746594D01*
X110694800Y-135757800D01*
X110044252Y-135757800D01*
X109977213Y-135738115D01*
X109956571Y-135721481D01*
X109594818Y-135359728D01*
X109561333Y-135298405D01*
X109558499Y-135272047D01*
X109558499Y-135214162D01*
X109558498Y-135214144D01*
X109548349Y-135114792D01*
X109548348Y-135114789D01*
X109538393Y-135084748D01*
X109495003Y-134953803D01*
X109494999Y-134953797D01*
X109494998Y-134953794D01*
X109405970Y-134809459D01*
X109405967Y-134809455D01*
X109286044Y-134689532D01*
X109286040Y-134689529D01*
X109141705Y-134600501D01*
X109141699Y-134600498D01*
X109141697Y-134600497D01*
X109119978Y-134593300D01*
X108980709Y-134547151D01*
X108881346Y-134537000D01*
X108034662Y-134537000D01*
X108034644Y-134537001D01*
X107935292Y-134547150D01*
X107935289Y-134547151D01*
X107815016Y-134587006D01*
X107776012Y-134593300D01*
X106662571Y-134593300D01*
X106486428Y-134593300D01*
X106458089Y-134598937D01*
X106342396Y-134621949D01*
X106313670Y-134627663D01*
X106150939Y-134695068D01*
X106150930Y-134695073D01*
X106004482Y-134792927D01*
X105942206Y-134855204D01*
X105879929Y-134917481D01*
X105879926Y-134917484D01*
X104331984Y-136465426D01*
X104331981Y-136465429D01*
X104287520Y-136509890D01*
X104207427Y-136589982D01*
X104165075Y-136653367D01*
X104109570Y-136736435D01*
X104109567Y-136736439D01*
X104091800Y-136779335D01*
X104042164Y-136899166D01*
X104042163Y-136899169D01*
X104042163Y-136899171D01*
X104036298Y-136928656D01*
X104018978Y-137015729D01*
X104018965Y-137015797D01*
X104018786Y-137016700D01*
X104007800Y-137071929D01*
X101500500Y-137071929D01*
X101500500Y-123251983D01*
X103945500Y-123251983D01*
X103945500Y-124652001D01*
X103945501Y-124652018D01*
X103956000Y-124754796D01*
X103956001Y-124754799D01*
X104005172Y-124903185D01*
X104011186Y-124921334D01*
X104103288Y-125070656D01*
X104227344Y-125194712D01*
X104376666Y-125286814D01*
X104543203Y-125341999D01*
X104645991Y-125352500D01*
X104677798Y-125352499D01*
X104744836Y-125372182D01*
X104790593Y-125424984D01*
X104801800Y-125476499D01*
X104801800Y-128607928D01*
X104801800Y-128784072D01*
X104806460Y-128807500D01*
X104836163Y-128956829D01*
X104841341Y-128969329D01*
X104845381Y-128979084D01*
X104845383Y-128979090D01*
X104903566Y-129119558D01*
X104903570Y-129119565D01*
X104940089Y-129174220D01*
X104940106Y-129174243D01*
X104941406Y-129176189D01*
X105001429Y-129266019D01*
X105020141Y-129284731D01*
X105025921Y-129292710D01*
X105034452Y-129316727D01*
X105046666Y-129339095D01*
X105048519Y-129356327D01*
X105049308Y-129358549D01*
X105048931Y-129360159D01*
X105049500Y-129365451D01*
X105049500Y-129423336D01*
X105049501Y-129423355D01*
X105059650Y-129522707D01*
X105059651Y-129522710D01*
X105099506Y-129642983D01*
X105105800Y-129681987D01*
X105105800Y-131088076D01*
X105140160Y-131260820D01*
X105140163Y-131260829D01*
X105207566Y-131423558D01*
X105207569Y-131423563D01*
X105231580Y-131459497D01*
X105231581Y-131459500D01*
X105231582Y-131459500D01*
X105305427Y-131570017D01*
X105305428Y-131570018D01*
X105305429Y-131570019D01*
X105429981Y-131694571D01*
X105429982Y-131694571D01*
X105437049Y-131701638D01*
X105437048Y-131701638D01*
X105437052Y-131701641D01*
X105875681Y-132140271D01*
X105909166Y-132201594D01*
X105912000Y-132227952D01*
X105912000Y-132525000D01*
X105912001Y-132525019D01*
X105922500Y-132627796D01*
X105922501Y-132627799D01*
X105950794Y-132713179D01*
X105977686Y-132794334D01*
X106069788Y-132943656D01*
X106193844Y-133067712D01*
X106343166Y-133159814D01*
X106509703Y-133214999D01*
X106612491Y-133225500D01*
X107387508Y-133225499D01*
X107387516Y-133225498D01*
X107387519Y-133225498D01*
X107443802Y-133219748D01*
X107490297Y-133214999D01*
X107656834Y-133159814D01*
X107806156Y-133067712D01*
X107930212Y-132943656D01*
X108022314Y-132794334D01*
X108077499Y-132627797D01*
X108088000Y-132525009D01*
X108087999Y-131474992D01*
X108086416Y-131459500D01*
X108077499Y-131372203D01*
X108077498Y-131372200D01*
X108040593Y-131260829D01*
X108022314Y-131205666D01*
X107930212Y-131056344D01*
X107806156Y-130932288D01*
X107656834Y-130840186D01*
X107490297Y-130785001D01*
X107490295Y-130785000D01*
X107387516Y-130774500D01*
X107387509Y-130774500D01*
X107090452Y-130774500D01*
X107061014Y-130765855D01*
X107031024Y-130759332D01*
X107026007Y-130755576D01*
X107023413Y-130754815D01*
X107002770Y-130738181D01*
X106930518Y-130665928D01*
X106897034Y-130604604D01*
X106894200Y-130578247D01*
X106894200Y-129681987D01*
X106900494Y-129642983D01*
X106906677Y-129624323D01*
X106940349Y-129522708D01*
X106950500Y-129423345D01*
X106950499Y-128576656D01*
X106940349Y-128477292D01*
X106887003Y-128316303D01*
X106886999Y-128316297D01*
X106886998Y-128316294D01*
X106797970Y-128171959D01*
X106797969Y-128171958D01*
X106797968Y-128171956D01*
X106678044Y-128052032D01*
X106678043Y-128052031D01*
X106678041Y-128052029D01*
X106649101Y-128034178D01*
X106602378Y-127982230D01*
X106590200Y-127928641D01*
X106590200Y-125476499D01*
X106609885Y-125409460D01*
X106662689Y-125363705D01*
X106714200Y-125352499D01*
X106746002Y-125352499D01*
X106746008Y-125352499D01*
X106848797Y-125341999D01*
X107015334Y-125286814D01*
X107164656Y-125194712D01*
X107288712Y-125070656D01*
X107380814Y-124921334D01*
X107435999Y-124754797D01*
X107446500Y-124652009D01*
X107446499Y-123251992D01*
X107435999Y-123149203D01*
X107380814Y-122982666D01*
X107288712Y-122833344D01*
X107164656Y-122709288D01*
X107015334Y-122617186D01*
X106848797Y-122562001D01*
X106848795Y-122562000D01*
X106746010Y-122551500D01*
X104645998Y-122551500D01*
X104645981Y-122551501D01*
X104543203Y-122562000D01*
X104543200Y-122562001D01*
X104376668Y-122617185D01*
X104376663Y-122617187D01*
X104227342Y-122709289D01*
X104103289Y-122833342D01*
X104011187Y-122982663D01*
X104011185Y-122982668D01*
X103994743Y-123032288D01*
X103956001Y-123149203D01*
X103956001Y-123149204D01*
X103956000Y-123149204D01*
X103945500Y-123251983D01*
X101500500Y-123251983D01*
X101500500Y-113001731D01*
X101500549Y-112998253D01*
X101506270Y-112794334D01*
X101518493Y-112358677D01*
X101518881Y-112351768D01*
X101572517Y-111715896D01*
X101573289Y-111709048D01*
X101662492Y-111077184D01*
X101663649Y-111070373D01*
X101788142Y-110444513D01*
X101789674Y-110437795D01*
X101949071Y-109819866D01*
X101950982Y-109813234D01*
X102144764Y-109205248D01*
X102147043Y-109198734D01*
X102374619Y-108602549D01*
X102377258Y-108596180D01*
X102637898Y-108013705D01*
X102640893Y-108007487D01*
X102933780Y-107440549D01*
X102937124Y-107434498D01*
X103261338Y-106884874D01*
X103265016Y-106879020D01*
X103619539Y-106348440D01*
X103623542Y-106342799D01*
X104007241Y-105832953D01*
X104011557Y-105827540D01*
X104423259Y-105339986D01*
X104427853Y-105334845D01*
X104866270Y-104871117D01*
X104871117Y-104866270D01*
X105334845Y-104427853D01*
X105339986Y-104423259D01*
X105827540Y-104011557D01*
X105832953Y-104007241D01*
X106342799Y-103623542D01*
X106348440Y-103619539D01*
X106879020Y-103265016D01*
X106884874Y-103261338D01*
X107434498Y-102937124D01*
X107440549Y-102933780D01*
X108007487Y-102640893D01*
X108013705Y-102637898D01*
X108596180Y-102377258D01*
X108602549Y-102374619D01*
X109198734Y-102147043D01*
X109205248Y-102144764D01*
X109813234Y-101950982D01*
X109819866Y-101949071D01*
X110437795Y-101789674D01*
X110444513Y-101788142D01*
X111070373Y-101663649D01*
X111077184Y-101662492D01*
X111709048Y-101573289D01*
X111715896Y-101572517D01*
X112351768Y-101518881D01*
X112358677Y-101518493D01*
X112983007Y-101500976D01*
X112998254Y-101500549D01*
X113001732Y-101500500D01*
X113065892Y-101500500D01*
X146934108Y-101500500D01*
X146996949Y-101500500D01*
X147003032Y-101500648D01*
G37*
%TD.AperFunction*%
%TD*%
M02*
