%TF.GenerationSoftware,KiCad,Pcbnew,10.0.2*%
%TF.CreationDate,2026-05-22T11:35:36+02:00*%
%TF.ProjectId,Open_Battery_Charger,4f70656e-5f42-4617-9474-6572795f4368,rev?*%
%TF.SameCoordinates,Original*%
%TF.FileFunction,Legend,Bot*%
%TF.FilePolarity,Positive*%
%FSLAX46Y46*%
G04 Gerber Fmt 4.6, Leading zero omitted, Abs format (unit mm)*
G04 Created by KiCad (PCBNEW 10.0.2) date 2026-05-22 11:35:36*
%MOMM*%
%LPD*%
G01*
G04 APERTURE LIST*
%ADD10C,0.150000*%
%ADD11C,0.120000*%
G04 APERTURE END LIST*
D10*
X137866285Y-128610819D02*
X137866285Y-127610819D01*
X137866285Y-127610819D02*
X137628190Y-127610819D01*
X137628190Y-127610819D02*
X137485333Y-127658438D01*
X137485333Y-127658438D02*
X137390095Y-127753676D01*
X137390095Y-127753676D02*
X137342476Y-127848914D01*
X137342476Y-127848914D02*
X137294857Y-128039390D01*
X137294857Y-128039390D02*
X137294857Y-128182247D01*
X137294857Y-128182247D02*
X137342476Y-128372723D01*
X137342476Y-128372723D02*
X137390095Y-128467961D01*
X137390095Y-128467961D02*
X137485333Y-128563200D01*
X137485333Y-128563200D02*
X137628190Y-128610819D01*
X137628190Y-128610819D02*
X137866285Y-128610819D01*
X136342476Y-128610819D02*
X136913904Y-128610819D01*
X136628190Y-128610819D02*
X136628190Y-127610819D01*
X136628190Y-127610819D02*
X136723428Y-127753676D01*
X136723428Y-127753676D02*
X136818666Y-127848914D01*
X136818666Y-127848914D02*
X136913904Y-127896533D01*
X135723428Y-127610819D02*
X135628190Y-127610819D01*
X135628190Y-127610819D02*
X135532952Y-127658438D01*
X135532952Y-127658438D02*
X135485333Y-127706057D01*
X135485333Y-127706057D02*
X135437714Y-127801295D01*
X135437714Y-127801295D02*
X135390095Y-127991771D01*
X135390095Y-127991771D02*
X135390095Y-128229866D01*
X135390095Y-128229866D02*
X135437714Y-128420342D01*
X135437714Y-128420342D02*
X135485333Y-128515580D01*
X135485333Y-128515580D02*
X135532952Y-128563200D01*
X135532952Y-128563200D02*
X135628190Y-128610819D01*
X135628190Y-128610819D02*
X135723428Y-128610819D01*
X135723428Y-128610819D02*
X135818666Y-128563200D01*
X135818666Y-128563200D02*
X135866285Y-128515580D01*
X135866285Y-128515580D02*
X135913904Y-128420342D01*
X135913904Y-128420342D02*
X135961523Y-128229866D01*
X135961523Y-128229866D02*
X135961523Y-127991771D01*
X135961523Y-127991771D02*
X135913904Y-127801295D01*
X135913904Y-127801295D02*
X135866285Y-127706057D01*
X135866285Y-127706057D02*
X135818666Y-127658438D01*
X135818666Y-127658438D02*
X135723428Y-127610819D01*
X140088857Y-119580819D02*
X140422190Y-119104628D01*
X140660285Y-119580819D02*
X140660285Y-118580819D01*
X140660285Y-118580819D02*
X140279333Y-118580819D01*
X140279333Y-118580819D02*
X140184095Y-118628438D01*
X140184095Y-118628438D02*
X140136476Y-118676057D01*
X140136476Y-118676057D02*
X140088857Y-118771295D01*
X140088857Y-118771295D02*
X140088857Y-118914152D01*
X140088857Y-118914152D02*
X140136476Y-119009390D01*
X140136476Y-119009390D02*
X140184095Y-119057009D01*
X140184095Y-119057009D02*
X140279333Y-119104628D01*
X140279333Y-119104628D02*
X140660285Y-119104628D01*
X139136476Y-119580819D02*
X139707904Y-119580819D01*
X139422190Y-119580819D02*
X139422190Y-118580819D01*
X139422190Y-118580819D02*
X139517428Y-118723676D01*
X139517428Y-118723676D02*
X139612666Y-118818914D01*
X139612666Y-118818914D02*
X139707904Y-118866533D01*
X138517428Y-118580819D02*
X138422190Y-118580819D01*
X138422190Y-118580819D02*
X138326952Y-118628438D01*
X138326952Y-118628438D02*
X138279333Y-118676057D01*
X138279333Y-118676057D02*
X138231714Y-118771295D01*
X138231714Y-118771295D02*
X138184095Y-118961771D01*
X138184095Y-118961771D02*
X138184095Y-119199866D01*
X138184095Y-119199866D02*
X138231714Y-119390342D01*
X138231714Y-119390342D02*
X138279333Y-119485580D01*
X138279333Y-119485580D02*
X138326952Y-119533200D01*
X138326952Y-119533200D02*
X138422190Y-119580819D01*
X138422190Y-119580819D02*
X138517428Y-119580819D01*
X138517428Y-119580819D02*
X138612666Y-119533200D01*
X138612666Y-119533200D02*
X138660285Y-119485580D01*
X138660285Y-119485580D02*
X138707904Y-119390342D01*
X138707904Y-119390342D02*
X138755523Y-119199866D01*
X138755523Y-119199866D02*
X138755523Y-118961771D01*
X138755523Y-118961771D02*
X138707904Y-118771295D01*
X138707904Y-118771295D02*
X138660285Y-118676057D01*
X138660285Y-118676057D02*
X138612666Y-118628438D01*
X138612666Y-118628438D02*
X138517428Y-118580819D01*
X124626666Y-124663580D02*
X124674285Y-124711200D01*
X124674285Y-124711200D02*
X124817142Y-124758819D01*
X124817142Y-124758819D02*
X124912380Y-124758819D01*
X124912380Y-124758819D02*
X125055237Y-124711200D01*
X125055237Y-124711200D02*
X125150475Y-124615961D01*
X125150475Y-124615961D02*
X125198094Y-124520723D01*
X125198094Y-124520723D02*
X125245713Y-124330247D01*
X125245713Y-124330247D02*
X125245713Y-124187390D01*
X125245713Y-124187390D02*
X125198094Y-123996914D01*
X125198094Y-123996914D02*
X125150475Y-123901676D01*
X125150475Y-123901676D02*
X125055237Y-123806438D01*
X125055237Y-123806438D02*
X124912380Y-123758819D01*
X124912380Y-123758819D02*
X124817142Y-123758819D01*
X124817142Y-123758819D02*
X124674285Y-123806438D01*
X124674285Y-123806438D02*
X124626666Y-123854057D01*
X124055237Y-124187390D02*
X124150475Y-124139771D01*
X124150475Y-124139771D02*
X124198094Y-124092152D01*
X124198094Y-124092152D02*
X124245713Y-123996914D01*
X124245713Y-123996914D02*
X124245713Y-123949295D01*
X124245713Y-123949295D02*
X124198094Y-123854057D01*
X124198094Y-123854057D02*
X124150475Y-123806438D01*
X124150475Y-123806438D02*
X124055237Y-123758819D01*
X124055237Y-123758819D02*
X123864761Y-123758819D01*
X123864761Y-123758819D02*
X123769523Y-123806438D01*
X123769523Y-123806438D02*
X123721904Y-123854057D01*
X123721904Y-123854057D02*
X123674285Y-123949295D01*
X123674285Y-123949295D02*
X123674285Y-123996914D01*
X123674285Y-123996914D02*
X123721904Y-124092152D01*
X123721904Y-124092152D02*
X123769523Y-124139771D01*
X123769523Y-124139771D02*
X123864761Y-124187390D01*
X123864761Y-124187390D02*
X124055237Y-124187390D01*
X124055237Y-124187390D02*
X124150475Y-124235009D01*
X124150475Y-124235009D02*
X124198094Y-124282628D01*
X124198094Y-124282628D02*
X124245713Y-124377866D01*
X124245713Y-124377866D02*
X124245713Y-124568342D01*
X124245713Y-124568342D02*
X124198094Y-124663580D01*
X124198094Y-124663580D02*
X124150475Y-124711200D01*
X124150475Y-124711200D02*
X124055237Y-124758819D01*
X124055237Y-124758819D02*
X123864761Y-124758819D01*
X123864761Y-124758819D02*
X123769523Y-124711200D01*
X123769523Y-124711200D02*
X123721904Y-124663580D01*
X123721904Y-124663580D02*
X123674285Y-124568342D01*
X123674285Y-124568342D02*
X123674285Y-124377866D01*
X123674285Y-124377866D02*
X123721904Y-124282628D01*
X123721904Y-124282628D02*
X123769523Y-124235009D01*
X123769523Y-124235009D02*
X123864761Y-124187390D01*
X131516285Y-124808819D02*
X131516285Y-123808819D01*
X131516285Y-123808819D02*
X131135333Y-123808819D01*
X131135333Y-123808819D02*
X131040095Y-123856438D01*
X131040095Y-123856438D02*
X130992476Y-123904057D01*
X130992476Y-123904057D02*
X130944857Y-123999295D01*
X130944857Y-123999295D02*
X130944857Y-124142152D01*
X130944857Y-124142152D02*
X130992476Y-124237390D01*
X130992476Y-124237390D02*
X131040095Y-124285009D01*
X131040095Y-124285009D02*
X131135333Y-124332628D01*
X131135333Y-124332628D02*
X131516285Y-124332628D01*
X130563904Y-124761200D02*
X130421047Y-124808819D01*
X130421047Y-124808819D02*
X130182952Y-124808819D01*
X130182952Y-124808819D02*
X130087714Y-124761200D01*
X130087714Y-124761200D02*
X130040095Y-124713580D01*
X130040095Y-124713580D02*
X129992476Y-124618342D01*
X129992476Y-124618342D02*
X129992476Y-124523104D01*
X129992476Y-124523104D02*
X130040095Y-124427866D01*
X130040095Y-124427866D02*
X130087714Y-124380247D01*
X130087714Y-124380247D02*
X130182952Y-124332628D01*
X130182952Y-124332628D02*
X130373428Y-124285009D01*
X130373428Y-124285009D02*
X130468666Y-124237390D01*
X130468666Y-124237390D02*
X130516285Y-124189771D01*
X130516285Y-124189771D02*
X130563904Y-124094533D01*
X130563904Y-124094533D02*
X130563904Y-123999295D01*
X130563904Y-123999295D02*
X130516285Y-123904057D01*
X130516285Y-123904057D02*
X130468666Y-123856438D01*
X130468666Y-123856438D02*
X130373428Y-123808819D01*
X130373428Y-123808819D02*
X130135333Y-123808819D01*
X130135333Y-123808819D02*
X129992476Y-123856438D01*
X129040095Y-124808819D02*
X129611523Y-124808819D01*
X129325809Y-124808819D02*
X129325809Y-123808819D01*
X129325809Y-123808819D02*
X129421047Y-123951676D01*
X129421047Y-123951676D02*
X129516285Y-124046914D01*
X129516285Y-124046914D02*
X129611523Y-124094533D01*
X135946094Y-115516819D02*
X135946094Y-114516819D01*
X135946094Y-114516819D02*
X135707999Y-114516819D01*
X135707999Y-114516819D02*
X135565142Y-114564438D01*
X135565142Y-114564438D02*
X135469904Y-114659676D01*
X135469904Y-114659676D02*
X135422285Y-114754914D01*
X135422285Y-114754914D02*
X135374666Y-114945390D01*
X135374666Y-114945390D02*
X135374666Y-115088247D01*
X135374666Y-115088247D02*
X135422285Y-115278723D01*
X135422285Y-115278723D02*
X135469904Y-115373961D01*
X135469904Y-115373961D02*
X135565142Y-115469200D01*
X135565142Y-115469200D02*
X135707999Y-115516819D01*
X135707999Y-115516819D02*
X135946094Y-115516819D01*
X134993713Y-114612057D02*
X134946094Y-114564438D01*
X134946094Y-114564438D02*
X134850856Y-114516819D01*
X134850856Y-114516819D02*
X134612761Y-114516819D01*
X134612761Y-114516819D02*
X134517523Y-114564438D01*
X134517523Y-114564438D02*
X134469904Y-114612057D01*
X134469904Y-114612057D02*
X134422285Y-114707295D01*
X134422285Y-114707295D02*
X134422285Y-114802533D01*
X134422285Y-114802533D02*
X134469904Y-114945390D01*
X134469904Y-114945390D02*
X135041332Y-115516819D01*
X135041332Y-115516819D02*
X134422285Y-115516819D01*
X136818666Y-124917580D02*
X136866285Y-124965200D01*
X136866285Y-124965200D02*
X137009142Y-125012819D01*
X137009142Y-125012819D02*
X137104380Y-125012819D01*
X137104380Y-125012819D02*
X137247237Y-124965200D01*
X137247237Y-124965200D02*
X137342475Y-124869961D01*
X137342475Y-124869961D02*
X137390094Y-124774723D01*
X137390094Y-124774723D02*
X137437713Y-124584247D01*
X137437713Y-124584247D02*
X137437713Y-124441390D01*
X137437713Y-124441390D02*
X137390094Y-124250914D01*
X137390094Y-124250914D02*
X137342475Y-124155676D01*
X137342475Y-124155676D02*
X137247237Y-124060438D01*
X137247237Y-124060438D02*
X137104380Y-124012819D01*
X137104380Y-124012819D02*
X137009142Y-124012819D01*
X137009142Y-124012819D02*
X136866285Y-124060438D01*
X136866285Y-124060438D02*
X136818666Y-124108057D01*
X136342475Y-125012819D02*
X136151999Y-125012819D01*
X136151999Y-125012819D02*
X136056761Y-124965200D01*
X136056761Y-124965200D02*
X136009142Y-124917580D01*
X136009142Y-124917580D02*
X135913904Y-124774723D01*
X135913904Y-124774723D02*
X135866285Y-124584247D01*
X135866285Y-124584247D02*
X135866285Y-124203295D01*
X135866285Y-124203295D02*
X135913904Y-124108057D01*
X135913904Y-124108057D02*
X135961523Y-124060438D01*
X135961523Y-124060438D02*
X136056761Y-124012819D01*
X136056761Y-124012819D02*
X136247237Y-124012819D01*
X136247237Y-124012819D02*
X136342475Y-124060438D01*
X136342475Y-124060438D02*
X136390094Y-124108057D01*
X136390094Y-124108057D02*
X136437713Y-124203295D01*
X136437713Y-124203295D02*
X136437713Y-124441390D01*
X136437713Y-124441390D02*
X136390094Y-124536628D01*
X136390094Y-124536628D02*
X136342475Y-124584247D01*
X136342475Y-124584247D02*
X136247237Y-124631866D01*
X136247237Y-124631866D02*
X136056761Y-124631866D01*
X136056761Y-124631866D02*
X135961523Y-124584247D01*
X135961523Y-124584247D02*
X135913904Y-124536628D01*
X135913904Y-124536628D02*
X135866285Y-124441390D01*
X143644857Y-124406819D02*
X143978190Y-123930628D01*
X144216285Y-124406819D02*
X144216285Y-123406819D01*
X144216285Y-123406819D02*
X143835333Y-123406819D01*
X143835333Y-123406819D02*
X143740095Y-123454438D01*
X143740095Y-123454438D02*
X143692476Y-123502057D01*
X143692476Y-123502057D02*
X143644857Y-123597295D01*
X143644857Y-123597295D02*
X143644857Y-123740152D01*
X143644857Y-123740152D02*
X143692476Y-123835390D01*
X143692476Y-123835390D02*
X143740095Y-123883009D01*
X143740095Y-123883009D02*
X143835333Y-123930628D01*
X143835333Y-123930628D02*
X144216285Y-123930628D01*
X142692476Y-124406819D02*
X143263904Y-124406819D01*
X142978190Y-124406819D02*
X142978190Y-123406819D01*
X142978190Y-123406819D02*
X143073428Y-123549676D01*
X143073428Y-123549676D02*
X143168666Y-123644914D01*
X143168666Y-123644914D02*
X143263904Y-123692533D01*
X141740095Y-124406819D02*
X142311523Y-124406819D01*
X142025809Y-124406819D02*
X142025809Y-123406819D01*
X142025809Y-123406819D02*
X142121047Y-123549676D01*
X142121047Y-123549676D02*
X142216285Y-123644914D01*
X142216285Y-123644914D02*
X142311523Y-123692533D01*
X132676094Y-122374819D02*
X132676094Y-121374819D01*
X132676094Y-121374819D02*
X132437999Y-121374819D01*
X132437999Y-121374819D02*
X132295142Y-121422438D01*
X132295142Y-121422438D02*
X132199904Y-121517676D01*
X132199904Y-121517676D02*
X132152285Y-121612914D01*
X132152285Y-121612914D02*
X132104666Y-121803390D01*
X132104666Y-121803390D02*
X132104666Y-121946247D01*
X132104666Y-121946247D02*
X132152285Y-122136723D01*
X132152285Y-122136723D02*
X132199904Y-122231961D01*
X132199904Y-122231961D02*
X132295142Y-122327200D01*
X132295142Y-122327200D02*
X132437999Y-122374819D01*
X132437999Y-122374819D02*
X132676094Y-122374819D01*
X131152285Y-122374819D02*
X131723713Y-122374819D01*
X131437999Y-122374819D02*
X131437999Y-121374819D01*
X131437999Y-121374819D02*
X131533237Y-121517676D01*
X131533237Y-121517676D02*
X131628475Y-121612914D01*
X131628475Y-121612914D02*
X131723713Y-121660533D01*
%TO.C,D10*%
D11*
X135892000Y-128996000D02*
X135892000Y-129996000D01*
X135892000Y-131116000D02*
X135892000Y-132116000D01*
X135892000Y-132116000D02*
X137412000Y-132116000D01*
X137412000Y-128996000D02*
X135892000Y-128996000D01*
X137412000Y-129046000D02*
X137412000Y-128996000D01*
X137412000Y-130946000D02*
X137412000Y-130166000D01*
X137412000Y-132116000D02*
X137412000Y-132066000D01*
X137952000Y-130176000D02*
X137712000Y-130506000D01*
X138192000Y-130506000D01*
X137952000Y-130176000D01*
G36*
X138192000Y-130506000D02*
G01*
X137712000Y-130506000D01*
X137952000Y-130176000D01*
X138192000Y-130506000D01*
G37*
%TO.C,R10*%
X143229064Y-118391000D02*
X142774936Y-118391000D01*
X143229064Y-119861000D02*
X142774936Y-119861000D01*
%TO.C,C8*%
X124721252Y-125249000D02*
X124198748Y-125249000D01*
X124721252Y-126719000D02*
X124198748Y-126719000D01*
%TO.C,PS1*%
X130202000Y-125644000D02*
X129402000Y-125644000D01*
X130202000Y-125644000D02*
X131002000Y-125644000D01*
X131202000Y-128864000D02*
X129402000Y-128864000D01*
X131502000Y-125694000D02*
X131742000Y-125364000D01*
X131262000Y-125364000D01*
X131502000Y-125694000D01*
G36*
X131502000Y-125694000D02*
G01*
X131262000Y-125364000D01*
X131742000Y-125364000D01*
X131502000Y-125694000D01*
G37*
%TO.C,D2*%
X143718000Y-113412000D02*
X138208000Y-113412000D01*
X143718000Y-113412000D02*
X143718000Y-116712000D01*
X143718000Y-116712000D02*
X138208000Y-116712000D01*
%TO.C,C9*%
X136913252Y-125503000D02*
X136390748Y-125503000D01*
X136913252Y-126973000D02*
X136390748Y-126973000D01*
%TO.C,R11*%
X143078564Y-121185000D02*
X142624436Y-121185000D01*
X143078564Y-122655000D02*
X142624436Y-122655000D01*
%TO.C,D1*%
X140448000Y-120270000D02*
X134938000Y-120270000D01*
X140448000Y-120270000D02*
X140448000Y-123570000D01*
X140448000Y-123570000D02*
X134938000Y-123570000D01*
%TD*%
M02*
