%TF.GenerationSoftware,KiCad,Pcbnew,10.0.2*%
%TF.CreationDate,2026-05-22T11:35:35+02:00*%
%TF.ProjectId,Open_Battery_Charger,4f70656e-5f42-4617-9474-6572795f4368,rev?*%
%TF.SameCoordinates,Original*%
%TF.FileFunction,Paste,Top*%
%TF.FilePolarity,Positive*%
%FSLAX46Y46*%
G04 Gerber Fmt 4.6, Leading zero omitted, Abs format (unit mm)*
G04 Created by KiCad (PCBNEW 10.0.2) date 2026-05-22 11:35:35*
%MOMM*%
%LPD*%
G01*
G04 APERTURE LIST*
G04 Aperture macros list*
%AMRoundRect*
0 Rectangle with rounded corners*
0 $1 Rounding radius*
0 $2 $3 $4 $5 $6 $7 $8 $9 X,Y pos of 4 corners*
0 Add a 4 corners polygon primitive as box body*
4,1,4,$2,$3,$4,$5,$6,$7,$8,$9,$2,$3,0*
0 Add four circle primitives for the rounded corners*
1,1,$1+$1,$2,$3*
1,1,$1+$1,$4,$5*
1,1,$1+$1,$6,$7*
1,1,$1+$1,$8,$9*
0 Add four rect primitives between the rounded corners*
20,1,$1+$1,$2,$3,$4,$5,0*
20,1,$1+$1,$4,$5,$6,$7,0*
20,1,$1+$1,$6,$7,$8,$9,0*
20,1,$1+$1,$8,$9,$2,$3,0*%
G04 Aperture macros list end*
%ADD10RoundRect,0.250000X-1.450000X-0.650000X1.450000X-0.650000X1.450000X0.650000X-1.450000X0.650000X0*%
%ADD11RoundRect,0.250000X-0.450000X0.325000X-0.450000X-0.325000X0.450000X-0.325000X0.450000X0.325000X0*%
%ADD12RoundRect,0.250000X-0.450000X0.262500X-0.450000X-0.262500X0.450000X-0.262500X0.450000X0.262500X0*%
%ADD13RoundRect,0.250000X-0.337500X-0.475000X0.337500X-0.475000X0.337500X0.475000X-0.337500X0.475000X0*%
%ADD14RoundRect,0.250001X-0.507499X-0.944999X0.507499X-0.944999X0.507499X0.944999X-0.507499X0.944999X0*%
%ADD15RoundRect,0.250000X-0.275000X0.325000X-0.275000X-0.325000X0.275000X-0.325000X0.275000X0.325000X0*%
%ADD16RoundRect,0.062500X-0.062500X0.362500X-0.062500X-0.362500X0.062500X-0.362500X0.062500X0.362500X0*%
%ADD17RoundRect,0.062500X-0.362500X0.062500X-0.362500X-0.062500X0.362500X-0.062500X0.362500X0.062500X0*%
%ADD18RoundRect,0.250000X-1.000000X-0.650000X1.000000X-0.650000X1.000000X0.650000X-1.000000X0.650000X0*%
%ADD19RoundRect,0.250000X0.337500X0.475000X-0.337500X0.475000X-0.337500X-0.475000X0.337500X-0.475000X0*%
%ADD20RoundRect,0.250000X1.450000X-0.537500X1.450000X0.537500X-1.450000X0.537500X-1.450000X-0.537500X0*%
%ADD21RoundRect,0.250000X-0.650000X1.000000X-0.650000X-1.000000X0.650000X-1.000000X0.650000X1.000000X0*%
%ADD22RoundRect,0.175000X0.325000X0.175000X-0.325000X0.175000X-0.325000X-0.175000X0.325000X-0.175000X0*%
%ADD23RoundRect,0.250000X-0.262500X-0.450000X0.262500X-0.450000X0.262500X0.450000X-0.262500X0.450000X0*%
%ADD24RoundRect,0.225000X0.525000X2.075000X-0.525000X2.075000X-0.525000X-2.075000X0.525000X-2.075000X0*%
%ADD25RoundRect,0.250000X-0.475000X0.337500X-0.475000X-0.337500X0.475000X-0.337500X0.475000X0.337500X0*%
%ADD26RoundRect,0.225000X0.375000X-0.225000X0.375000X0.225000X-0.375000X0.225000X-0.375000X-0.225000X0*%
%ADD27RoundRect,0.172500X-0.422500X0.172500X-0.422500X-0.172500X0.422500X-0.172500X0.422500X0.172500X0*%
%ADD28RoundRect,0.100000X-0.100000X0.625000X-0.100000X-0.625000X0.100000X-0.625000X0.100000X0.625000X0*%
%ADD29RoundRect,0.175000X-0.175000X0.325000X-0.175000X-0.325000X0.175000X-0.325000X0.175000X0.325000X0*%
%ADD30RoundRect,0.150000X0.512500X0.150000X-0.512500X0.150000X-0.512500X-0.150000X0.512500X-0.150000X0*%
%ADD31RoundRect,0.250000X1.000000X0.650000X-1.000000X0.650000X-1.000000X-0.650000X1.000000X-0.650000X0*%
%ADD32RoundRect,0.225000X-0.225000X-0.375000X0.225000X-0.375000X0.225000X0.375000X-0.225000X0.375000X0*%
%ADD33RoundRect,0.250000X0.475000X-0.337500X0.475000X0.337500X-0.475000X0.337500X-0.475000X-0.337500X0*%
G04 APERTURE END LIST*
D10*
%TO.C,TP1*%
X132000000Y-105000000D03*
%TD*%
D11*
%TO.C,D8*%
X123000000Y-120975000D03*
X123000000Y-123025000D03*
%TD*%
D12*
%TO.C,R4*%
X135000000Y-117175000D03*
X135000000Y-119000000D03*
%TD*%
D13*
%TO.C,C1*%
X138962500Y-112000000D03*
X141037500Y-112000000D03*
%TD*%
D14*
%TO.C,C7*%
X120142000Y-144780000D03*
X123397000Y-144780000D03*
%TD*%
D15*
%TO.C,U1*%
X130220000Y-118427500D03*
X129000000Y-118427500D03*
X127780000Y-118427500D03*
X130220000Y-119747500D03*
X129000000Y-119747500D03*
X127780000Y-119747500D03*
D16*
X130500000Y-117137500D03*
X130000000Y-117137500D03*
X129500000Y-117137500D03*
X129000000Y-117137500D03*
X128500000Y-117137500D03*
X128000000Y-117137500D03*
X127500000Y-117137500D03*
D17*
X126550000Y-118087500D03*
X126550000Y-118587500D03*
X126550000Y-119087500D03*
X126550000Y-119587500D03*
X126550000Y-120087500D03*
D16*
X127500000Y-121037500D03*
X128000000Y-121037500D03*
X128500000Y-121037500D03*
X129000000Y-121037500D03*
X129500000Y-121037500D03*
X130000000Y-121037500D03*
X130500000Y-121037500D03*
D17*
X131450000Y-120087500D03*
X131450000Y-119587500D03*
X131450000Y-119087500D03*
X131450000Y-118587500D03*
X131450000Y-118087500D03*
%TD*%
D18*
%TO.C,D5*%
X138970000Y-126238000D03*
X142970000Y-126238000D03*
%TD*%
D12*
%TO.C,R8*%
X114000000Y-121087500D03*
X114000000Y-122912500D03*
%TD*%
%TO.C,R5*%
X129000000Y-124175000D03*
X129000000Y-126000000D03*
%TD*%
D19*
%TO.C,C6*%
X141037500Y-142000000D03*
X138962500Y-142000000D03*
%TD*%
D12*
%TO.C,R6*%
X132000000Y-124175000D03*
X132000000Y-126000000D03*
%TD*%
D20*
%TO.C,L1*%
X117515000Y-139297500D03*
X117515000Y-135022500D03*
%TD*%
D21*
%TO.C,D4*%
X142000000Y-117087500D03*
X142000000Y-121087500D03*
%TD*%
D13*
%TO.C,C10*%
X107000000Y-132000000D03*
X109075000Y-132000000D03*
%TD*%
D22*
%TO.C,Q1*%
X124460000Y-111120000D03*
X124460000Y-110170000D03*
X124460000Y-109220000D03*
X121860000Y-109220000D03*
X121860000Y-110170000D03*
X121860000Y-111120000D03*
%TD*%
D11*
%TO.C,D7*%
X120000000Y-120975000D03*
X120000000Y-123025000D03*
%TD*%
D23*
%TO.C,R9*%
X111713000Y-136652000D03*
X113538000Y-136652000D03*
%TD*%
D24*
%TO.C,F1*%
X110857000Y-114565400D03*
X105954800Y-114565400D03*
%TD*%
D25*
%TO.C,C4*%
X126000000Y-123962500D03*
X126000000Y-126037500D03*
%TD*%
D26*
%TO.C,D6*%
X108458000Y-138787500D03*
X108458000Y-135487500D03*
%TD*%
D25*
%TO.C,C3*%
X138000000Y-117050000D03*
X138000000Y-119125000D03*
%TD*%
D27*
%TO.C,IC1*%
X119710000Y-128585000D03*
X118290000Y-128585000D03*
X119710000Y-129415000D03*
X118290000Y-129415000D03*
D28*
X120625000Y-126850000D03*
X119975000Y-126850000D03*
X119325000Y-126850000D03*
X118675000Y-126850000D03*
X118025000Y-126850000D03*
X117375000Y-126850000D03*
X117375000Y-131150000D03*
X118025000Y-131150000D03*
X118675000Y-131150000D03*
X119325000Y-131150000D03*
X119975000Y-131150000D03*
X120625000Y-131150000D03*
%TD*%
D12*
%TO.C,R1*%
X123000000Y-115032000D03*
X123000000Y-116857000D03*
%TD*%
D29*
%TO.C,Q2*%
X118328000Y-108108000D03*
X117378000Y-108108000D03*
X116428000Y-108108000D03*
X116428000Y-110708000D03*
X117378000Y-110708000D03*
X118328000Y-110708000D03*
%TD*%
D12*
%TO.C,R7*%
X117000000Y-121087500D03*
X117000000Y-122912500D03*
%TD*%
D30*
%TO.C,U2*%
X130048000Y-111252000D03*
X130048000Y-110302000D03*
X130048000Y-109352000D03*
X127773000Y-109352000D03*
X127773000Y-110302000D03*
X127773000Y-111252000D03*
%TD*%
D12*
%TO.C,R2*%
X120000000Y-115032000D03*
X120000000Y-116857000D03*
%TD*%
D31*
%TO.C,D3*%
X142000000Y-108000000D03*
X138000000Y-108000000D03*
%TD*%
D32*
%TO.C,D11*%
X106000000Y-129000000D03*
X109300000Y-129000000D03*
%TD*%
D13*
%TO.C,C2*%
X134962500Y-121087500D03*
X137037500Y-121087500D03*
%TD*%
D12*
%TO.C,R3*%
X117000000Y-115032000D03*
X117000000Y-116857000D03*
%TD*%
D23*
%TO.C,R12*%
X124968000Y-104648000D03*
X126793000Y-104648000D03*
%TD*%
D18*
%TO.C,D12*%
X105696000Y-123952000D03*
X109696000Y-123952000D03*
%TD*%
D33*
%TO.C,C5*%
X121579000Y-138197500D03*
X121579000Y-136122500D03*
%TD*%
D21*
%TO.C,D9*%
X128016000Y-131604000D03*
X128016000Y-135604000D03*
%TD*%
M02*
