M48
; DRILL file KiCad 10.0.2 date 2026-05-22T11:35:48
; FORMAT={-:-/ absolute / metric / decimal}
; #@! TF.CreationDate,2026-05-22T11:35:48+02:00
; #@! TF.GenerationSoftware,Kicad,Pcbnew,10.0.2
; #@! TF.FileFunction,Plated,1,2,PTH
FMAT,2
METRIC
; #@! TA.AperFunction,Plated,PTH,ComponentDrill
T1C0.200
; #@! TA.AperFunction,Plated,PTH,ViaDrill
T2C0.300
; #@! TA.AperFunction,Plated,PTH,ComponentDrill
T3C1.000
; #@! TA.AperFunction,Plated,PTH,ComponentDrill
T4C2.200
%
G90
G05
T1
X118.0Y-128.5
X118.0Y-129.5
X119.0Y-128.5
X119.0Y-129.5
X120.0Y-128.5
X120.0Y-129.5
X127.425Y-118.012
X127.425Y-119.087
X127.425Y-120.162
X128.475Y-118.012
X128.475Y-119.087
X128.475Y-120.162
X129.525Y-118.012
X129.525Y-119.087
X129.525Y-120.162
X130.575Y-118.012
X130.575Y-119.087
X130.575Y-120.162
T2
X107.0Y-132.0
X113.03Y-128.27
X113.03Y-129.54
X113.03Y-130.81
X114.046Y-110.708
X114.3Y-128.27
X114.3Y-129.54
X114.3Y-130.81
X115.57Y-128.27
X115.57Y-129.54
X115.57Y-130.81
X116.078Y-132.334
X121.666Y-124.968
X121.86Y-105.918
X121.92Y-130.556
X122.936Y-130.556
X123.952Y-130.556
X124.46Y-109.22
X127.773Y-110.302
X128.778Y-122.428
X131.318Y-132.334
X132.0Y-105.0
X132.588Y-141.986
X134.874Y-127.254
X138.43Y-124.206
X139.7Y-129.54
X139.7Y-131.064
X140.97Y-124.46
T3
X147.0Y-111.38
X147.0Y-113.92
X147.0Y-116.46
X147.0Y-119.0
X147.0Y-121.54
X147.0Y-124.08
X147.0Y-129.92
X147.0Y-132.46
X147.0Y-135.0
X147.0Y-137.54
X147.0Y-140.08
T4
X146.743Y-146.943
X147.0Y-105.0
M30
